<?xml version="1.0" standalone="no"?>
<!DOCTYPE svg PUBLIC "-//W3C//DTD SVG 1.1//EN" "http://www.w3.org/Graphics/SVG/1.1/DTD/svg11.dtd" >
<!--
2013-9-30: Created.
-->
<svg>
<metadata>
Created by iconfont
</metadata>
<defs>

<font id="flexfont" horiz-adv-x="1024" >
  <font-face
    font-family="flexfont"
    font-weight="500"
    font-stretch="normal"
    units-per-em="1024"
    ascent="896"
    descent="-128"
  />
    <missing-glyph />
    
    <glyph glyph-name="x" unicode="x" horiz-adv-x="1001"
d="M281 543q-27 -1 -53 -1h-83q-18 0 -36.5 -6t-32.5 -18.5t-23 -32t-9 -45.5v-76h912v41q0 16 -0.5 30t-0.5 18q0 13 -5 29t-17 29.5t-31.5 22.5t-49.5 9h-133v-97h-438v97zM955 310v-52q0 -23 0.5 -52t0.5 -58t-10.5 -47.5t-26 -30t-33 -16t-31.5 -4.5q-14 -1 -29.5 -0.5
t-29.5 0.5h-32l-45 128h-439l-44 -128h-29h-34q-20 0 -45 1q-25 0 -41 9.5t-25.5 23t-13.5 29.5t-4 30v167h911zM163 247q-12 0 -21 -8.5t-9 -21.5t9 -21.5t21 -8.5q13 0 22 8.5t9 21.5t-9 21.5t-22 8.5zM316 123q-8 -26 -14 -48q-5 -19 -10.5 -37t-7.5 -25t-3 -15t1 -14.5
t9.5 -10.5t21.5 -4h37h67h81h80h64h36q23 0 34 12t2 38q-5 13 -9.5 30.5t-9.5 34.5q-5 19 -11 39h-368zM336 498v228q0 11 2.5 23t10 21.5t20.5 15.5t34 6h188q31 0 51.5 -14.5t20.5 -52.5v-227h-327z" />
    

    
    <glyph glyph-name="sun2" unicode="&#59485;" d="M542.016 641.984c17.664 0 32 14.336 32 32L574.016 737.984c0 17.664-14.336 32-32 32s-32-14.336-32-32l0-64C510.016 656.32 524.32 641.984 542.016 641.984zM542.016 65.984c-17.664 0-32-14.336-32-32l0-64c0-17.664 14.336-32 32-32s32 14.336 32 32l0 64C574.016 51.68 559.68 65.984 542.016 65.984zM293.12 150.336l-45.248-45.248c-12.512-12.512-12.512-32.736 0-45.248s32.736-12.512 45.248 0l45.248 45.248c12.512 12.544 12.512 32.768 0 45.248C325.888 162.848 305.632 162.88 293.12 150.336zM254.016 353.984c0 17.664-14.336 32-32 32L158.016 385.984c-17.664 0-32-14.336-32-32s14.336-32 32-32l64 0C239.68 321.984 254.016 336.32 254.016 353.984zM293.088 557.664c12.512-12.512 32.768-12.512 45.248 0 12.512 12.512 12.512 32.736 0 45.248l-45.248 45.248c-12.512 12.512-32.736 12.512-45.248 0-12.512-12.512-12.512-32.736 0-45.248L293.088 557.664zM670.016 577.984c-22.368 0-43.616-4.32-64-10.432-20.384 6.08-41.632 10.432-64 10.432-123.488 0-224-100.512-224-224s100.512-224 224-224c22.368 0 43.616 4.32 64 10.432 20.384-6.08 41.632-10.432 64-10.432 123.488 0 224 100.512 224 224S793.504 577.984 670.016 577.984zM510.464 197.152C437.152 211.84 382.016 276.416 382.016 353.984c0 77.6 55.168 142.176 128.448 156.832C470.656 470.368 446.016 415.072 446.016 353.984S470.656 237.632 510.464 197.152z"  horiz-adv-x="1024" />

    
    <glyph glyph-name="mendoor13" unicode="&#59127;" d="M825.06752 824.1664l-512 0c-11.30496 0-20.48-9.17504-20.48-20.48l0-306.18624 28.17024 0c-8.46848 10.81344-13.06624 24.064-13.06624 38.01088-0.01024 16.51712 6.43072 32.0512 18.11456 43.7248 2.4064 2.4064 5.02784 4.54656 7.75168 6.5024L333.55776 783.2064l471.04 0 0-14.71488-215.04-156.12928 0-668.53888 216.20736 156.9792c2.75456-8.06912 10.31168-13.91616 19.31264-13.91616 11.30496 0 20.48 9.17504 20.48 20.48l0 696.32C845.54752 815.0016 836.38272 824.1664 825.06752 824.1664zM670.79168 262.52288c-9.65632 0-17.70496 11.9296-19.78368 27.89376l-23.06048 0 0 17.92 23.38816 0c2.44736 14.99136 10.17856 26.01984 19.44576 26.01984 11.22304 0 20.31616-16.0768 20.31616-35.92192C691.10784 278.59968 682.01472 262.52288 670.79168 262.52288zM325.81632 292.13696c2.4064-2.39616 5.0176-4.52608 7.7312-6.47168l0-178.29888c0-11.30496-9.17504-20.48-20.48-20.48s-20.48 9.17504-20.48 20.48L292.58752 373.90336l28.17024 0C301.83424 349.66528 303.50336 314.46016 325.81632 292.13696zM472.29952 454.69696c8.15104-8.15104 8.15104-21.32992 0-29.48096l-99.80928-99.81952c-4.06528-4.05504-9.40032-6.10304-14.73536-6.11328-5.33504 0.01024-10.67008 2.048-14.73536 6.11328-8.1408 8.1408-8.13056 21.34016 0 29.47072l64.24576 64.24576-207.9744 0c-11.50976 0-20.8384 9.32864-20.8384 20.8384s9.3184 20.8384 20.84864 20.8384l207.95392 0-64.23552 64.24576c-8.13056 8.13056-8.1408 21.32992 0 29.46048 8.1408 8.1408 21.34016 8.1408 29.48096 0L472.29952 454.69696z"  horiz-adv-x="1024" />

    
    <glyph glyph-name="fan" unicode="&#59397;" d="M512 426.666667C488.533333 426.666667 469.333333 407.466667 469.333333 384 469.333333 360.533333 488.533333 341.333333 512 341.333333 535.466667 341.333333 554.666667 360.533333 554.666667 384 554.666667 407.466667 535.466667 426.666667 512 426.666667M533.333333 810.666667C725.333333 810.666667 730.026667 658.346667 629.333333 608 587.093333 587.093333 568.32 542.293333 560.213333 502.613333 580.693333 494.08 598.613333 480.853333 612.266667 463.786667 770.133333 549.12 939.946667 515.413333 939.946667 362.666667 939.946667 170.666667 787.626667 166.4 737.28 267.52 715.946667 309.76 670.72 328.533333 631.04 336.64 622.506667 316.16 609.28 298.666667 592.213333 284.16 677.12 126.72 643.413333-42.666667 490.666667-42.666667 298.666667-42.666667 294.826667 110.08 395.52 160.426667 437.333333 181.333333 456.106667 225.706667 464.64 264.96 443.733333 273.493333 425.386667 287.146667 411.733333 304.213333 254.293333 219.733333 85.333333 253.013333 85.333333 405.333333 85.333333 597.333333 237.226667 602.026667 287.573333 500.906667 308.906667 458.666667 353.706667 440.32 393.386667 432.213333 401.493333 452.693333 415.146667 470.613333 432.64 484.266667 347.733333 641.706667 381.44 810.666667 533.333333 810.666667Z"  horiz-adv-x="1024" />

    
    <glyph glyph-name="light" unicode="&#58911;" d="M722.96 750.143c-116.348 109.215-305.572 109.215-421.898 0-115.132-108.113-116.325-283.32-3.488-392.805l67.523-126.090 53.28 25.132-71.752 134.077-3.375 3.195c-93.038 87.345-93.038 229.5 0 316.868 93.015 87.345 244.462 87.345 337.523 0 92.992-87.367 92.992-229.5 0-316.868l-75.532-137.228 53.235-25.222 67.928 126.113c112.86 109.463 111.667 284.715-3.442 392.828zM389.060 188.655l7.155-55.598 238.635 27.113-7.178 55.62-238.613-27.135zM389.060 104.64l7.155-55.598 238.635 27.067-7.178 55.687-238.613-27.157zM511.325-8.040c-16.47 0-29.835 12.577-29.835 27.99h-59.647c0-46.373 40.162-84.015 89.505-84.015s89.505 37.665 89.505 84.015h-59.692c-0.045-15.412-13.455-27.99-29.835-27.99zM332.99 552.12h59.67c0 61.785 53.505 112.028 119.295 112.028v56.025c-98.662 0-178.965-75.375-178.965-168.053z"  horiz-adv-x="1024" />

    
    <glyph glyph-name="fire" unicode="&#58977;" d="M850.92864 289.32096c-114.8416 248.8064-40.75008 328.59136-40.00256 329.45152 1.28 1.26976 1.45408 3.31776 0.4864 4.90496-1.05472 1.53088-3.04128 2.13504-4.78208 1.408-1.67424-0.65024-161.51552-67.23584-141.4144-214.8864-43.8528 39.39328-248.67328 241.61792-123.3664 479.4368 0.768 1.46944 0.52736 3.2768-0.61952 4.49536-1.1008 1.24416-2.94912 1.6384-4.36736 0.98816-2.72896-1.11104-66.64192-28.43648-117.54496-97.4592C372.34176 734.1056 328.60672 621.66016 387.4816 447.6928c21.39648-81.82272-18.97472-148.21376-40.61696-176.37888 5.34016 19.41504 11.99616 52.34176 10.89536 90.09152C356.0448 416.6656 336.11776 493.01504 250.93632 542.43328c-1.31072 0.73728-3.00544 0.67072-4.24448-0.27648-1.3312-0.96768-1.8944-2.49856-1.52064-4.096 0.27648-1.45408 32.13824-146.80064-23.7568-214.07744-48.25088-58.06592-95.52384-159.04256-69.93408-252.61568 21.44256-78.2336 88.45824-137.99936 199.13216-177.44384 28.40576-8.7296 55.5776-15.33952 85.59616-20.93568 1.94048-0.46592 3.87584 0.72704 4.46464 2.57536 0.5632 2.00704-0.36352 4.08064-2.13504 4.9152-56.88832 24.64256-115.50208 75.96544-71.94112 180.27008 41.4976 89.86624 34.09408 136.21248 25.76384 156.08832 21.44256-12.07296 64.0512-43.45856 53.42208-98.54976-0.28672-1.60768 0.42496-3.30752 1.84832-4.12672 1.44384-0.86016 3.2256-0.768 4.49536 0.29184 1.37728 1.08032 129.44896 106.46016 71.21408 235.58144 28.70272-16.56832 104.7808-74.4192 59.90912-207.22176-14.94016-57.1648 25.73824-98.176 27.45856-99.9424 1.36704-1.30048 3.38944-1.52064 4.98176-0.4608 1.49504 0.92672 2.11456 2.90304 1.45408 4.71552-1.32608 3.56864-31.65184 85.28384 34.15552 130.41664-3.4816-20.98176-8.99072-72.87296 14.592-101.1968 21.15584-25.47712 41.60512-67.23584 35.34848-108.05248-4.36736-28.69248-21.33504-52.86912-50.60096-71.81824-1.67424-1.20832-2.28864-3.24096-1.408-5.0688 0.7936-1.82784 2.90816-2.64704 4.80256-2.048 72.27904 23.936 167.04512 71.40352 208.33792 162.00192C892.90752 118.08768 889.0368 198.12864 850.92864 289.32096"  horiz-adv-x="1024" />

    
    <glyph glyph-name="chuanglian" unicode="&#58963;" d="M982.9351 879.877008l-1.007876 0c-0.013102 0-0.025197-0.001008-0.039307-0.001008L876.109315 879.876c-0.01411 0-0.026205 0.001008-0.039307 0.001008l-1.007876 0c-0.013102 0-0.025197-0.001008-0.039307-0.001008L769.198869 879.876l-1.007876 0L240.198016 879.876l-1.007876 0L133.369207 879.876c-0.013102 0-0.025197 0.001008-0.039307 0.001008l-1.007876 0c-0.013102 0-0.026205-0.001008-0.039307-0.001008L26.501092 879.876c-0.013102 0-0.025197 0.001008-0.039307 0.001008l-1.007876 0c-13.916752 0-25.1969-11.281156-25.1969-25.1969l0-0.001008 0-1.007876 0-925.066892c0-0.191496 0.010079-0.381985 0.015118-0.572474-0.159244-6.383887 2.058083-12.363615 5.905145-17.0069l-0.008063-0.007055c16.068567-20.177678 39.834283-34.224445 67.488385-37.357932 27.65511-3.135502 53.962689 5.235916 74.140366 21.303475 9.886256 7.874535 22.777998 11.976591 36.32889 10.440587 13.550893-1.537011 25.194884-8.419796 33.069419-18.30706l0.020158 0.016126c4.096008-5.093805 10.122099-8.636489 17.12986-9.430696 3.591062-0.406174 7.091416-0.049386 10.343831 0.937325 11.773 2.119563 20.705805 12.407961 20.705805 24.789718l0.001008 925.066892 477.599176 0 0.001008-925.066892c0-12.381757 8.932805-22.670155 20.704797-24.789718 3.252416-0.986711 6.752769-1.343499 10.344839-0.937325 7.006754 0.794206 13.033852 4.337898 17.12986 9.430696l0.020158-0.016126c7.874535 9.888271 19.517519 16.770049 33.069419 18.30706 13.550893 1.534995 26.442635-2.56706 36.32889-10.440587 20.177678-16.066551 46.484249-24.438977 74.140366-21.303475 27.654102 3.133486 51.419818 17.181262 67.488385 37.357932l-0.008063 0.007055c3.845047 4.641269 6.063382 10.617974 5.905145 16.998837 0.005039 0.193512 0.015118 0.386017 0.015118 0.580537L1008.136032 853.671224l0 1.007876L1008.136032 854.680108C1008.133008 868.595852 996.851852 879.877008 982.9351 879.877008zM79.446834-75.267928c-10.787297 1.223561-20.358087 5.842657-27.788149 12.65993l0.001008 891.082321 55.46644 0 0-898.818777C98.854494-74.49791 89.329058-76.387678 79.446834-75.267928zM213.99324-49.294963c-7.594346 2.844226-15.65433 4.816639-24.078158 5.772106-10.7621 1.220538-21.316577 0.691403-31.38929-1.349546l0.001008 873.346727 55.465432 0L213.992232-49.294963zM818.473926-43.523865c-8.42282-0.954459-16.482804-2.926872-24.07715-5.772106L794.396776 828.474324l55.467448 0 0.001008-873.347735C839.792519-42.832462 829.237034-42.303327 818.473926-43.523865zM928.943183-75.267928c-9.881216-1.118742-19.405644 0.770017-27.676275 4.922466L901.266908 828.474324l55.463416 0 0.002016-891.081313C949.302278-69.425271 939.73048-74.044366 928.943183-75.267928z"  horiz-adv-x="1024" />

    
    <glyph glyph-name="tv" unicode="&#59503;" d="M1024 182.857143l0 548.571429q0 7.428571-5.428571 12.857143t-12.857143 5.428571l-914.285714 0q-7.428571 0-12.857143-5.428571t-5.428571-12.857143l0-548.571429q0-7.428571 5.428571-12.857143t12.857143-5.428571l914.285714 0q7.428571 0 12.857143 5.428571t5.428571 12.857143zm73.142857 548.571429l0-548.571429q0-37.714286-26.857143-64.571429t-64.571429-26.857143l-420.571429 0 0-73.142857 201.142857 0q8 0 13.142857-5.142857t5.142857-13.142857l0-36.571429q0-8-5.142857-13.142857t-13.142857-5.142857l-475.428571 0q-8 0-13.142857 5.142857t-5.142857 13.142857l0 36.571429q0 8 5.142857 13.142857t13.142857 5.142857l201.142857 0 0 73.142857-420.571429 0q-37.714286 0-64.571429 26.857143t-26.857143 64.571429l0 548.571429q0 37.714286 26.857143 64.571429t64.571429 26.857143l914.285714 0q37.714286 0 64.571429-26.857143t26.857143-64.571429z"  horiz-adv-x="1098" />

    
    <glyph glyph-name="reshuihu" unicode="&#58926;" d="M215.417211 341.034443c50.119491-47.614437 89.351004-40.942481 84.09735-60.983933 1.106194-172.907025-17.691941-238.492766 34.933627-238.492766 195.715497 0 345.3157-4.048199 459.863572-8.238638 92.707448 0 56.367799 73.407893 56.367799 413.06164 0 47.124274 6.601348 95.942119 30.534434 137.110751 10.451026 16.645099 22.635533 32.793894 39.064714 43.764759-16.346293 31.000038-44.153616 53.222155-71.895447 73.15616-41.485857 28.710902-86.919628 51.02921-133.624347 69.515237-112.150266 43.220361-325.144288 63.076594-444.892603 62.255902-37.875632-0.345877-77.336366-10.007935-107.002013-35.011398-27.186176-22.724561-43.473117-56.248072-51.166333-90.64958-13.847379-62.364373-8.399297-127.635959 6.659677-189.234899C136.411833 446.23032 162.509211 391.29208 215.417211 341.034443L215.417211 341.034443zM359.419929 276.809699c4.02364 15.33629 12.544711 452.252221 12.544711 452.252221-17.883299 75.153654 154.641009 41.182958 254.331499 13.836123 72.504314-19.886933 114.810862-38.379099 170.508395-68.057025 23.071462-12.298094 45.527916-26.414603 58.054207-47.716768-12.567223-8.393157-24.931832-29.020964-32.9259-41.754986-18.319228-31.508621-25.38618-142.379755-25.38618-178.443112 0-259.916704 27.807323-316.087005-43.136449-316.087005l-351.900675 6.30152C338.207815 100.0356 360.263134 144.494161 359.419929 276.809699L359.419929 276.809699zM167.800727 712.333934c17.541515 45.940308 48.451502 65.986877 98.984409 70.142523 15.980973 1.314948 24.907273-1.877767 37.229926-12.915148 9.482979-8.626471 13.112646-22.024619 12.854772-34.622542 0-117.632117 0.082888-235.259118-0.01842-352.896352 0.382717-9.089006-2.917446-22.079878-13.81054-22.540366-16.72287 0.880043-38.916335 13.124925-49.940412 24.542976-31.472805 36.626175-61.20599 68.811202-73.605392 115.27749C162.186869 564.412976 139.138944 637.251911 167.800727 712.333934L167.800727 712.333934zM919.387407-29.441287c0 12.842493-15.657608 26.235524-35.933397 26.235524-202.094788 0.034792-463.546452-0.024559-665.658635 0.01228-9.296737-0.162706-46.233997 1.321088-46.233997-33.738405 0-15.061021 17.331737-27.276227 33.003672-27.276227 229.871411 0.156566 454.870862-0.095167 684.754552 0.090051C908.738883-64.118064 919.387407-52.932304 919.387407-29.441287L919.387407-29.441287zM639.544885 468.495416c-28.399817-0.095167-56.834426 0.340761-85.215824-0.203638-10.893094-0.1361-19.914562-12.279674-15.848966-22.843264 2.27788-7.635911 10.146081-11.999288 17.689894-11.905144 28.167526-0.298805 56.344263 0.167822 84.504626-0.232291-0.071631-23.215748-0.095167-46.449915 0-69.671803-26.807552-0.022513-53.623291-0.040932-80.430844 0.036839-6.051833-0.036839-12.902868-0.621147-17.303085-5.393847-6.702656-5.859451-7.240915-17.414625-0.950651-23.777543 4.357238-5.379521 11.730159-6.002714 18.10945-6.085602 26.856671 0.065492 53.701063 0.040932 80.558757 0.022513-0.036839-23.225981-0.077771-46.460148 0.016373-69.712735-27.448142-0.119727-54.885028 0.083911-82.334193-0.076748-8.18952 0.138146-17.278525-3.689019-19.819394-12.244882-4.184299-10.606569 4.795213-22.546505 15.700587-22.666232 28.41005-0.669242 77.197196 0 105.637945-0.323365-0.076748-0.339738 18.319228-3.090385 18.516726 7.838525 0.969071 52.996005 0.040932 149.104923 0 218.758306-0.185218 8.627495 3.157923 18.821671-9.81146 18.266016C656.929834 467.783195 639.406738 469.153402 639.544885 468.495416L639.544885 468.495416zM639.544885 468.495416"  horiz-adv-x="1024" />

    
    <glyph glyph-name="color" unicode="&#58881;" d="M954.757 604.527c-3.61 3.685-8.041 5.583-13.168 5.641-12.515 0.141-26.509-10.942-36.036-20.255l-340.912-331.177c-12.501-12.229-58.516-86.966-60.468-90.143l-7.452-12.121 12.135 7.428c3.217 1.968 78.963 48.374 91.438 60.569l340.911 331.178c15.151 14.815 26.671 35.436 13.552 48.879v0zM741.987 501.522c0-27.609-22.407-50.015-50.015-50.015-27.613 0-50.021 22.406-50.021 50.015 0 27.61 22.408 50.018 50.021 50.018 27.608 0 50.015-22.408 50.015-50.018v0zM216.812 326.469c-27.61 0-50.016 22.403-50.016 50.012 0 27.612 22.406 50.020 50.016 50.020 27.608 0 50.017-22.408 50.017-50.020 0-27.609-22.409-50.012-50.017-50.012v0zM291.838 501.522c0 27.61 22.408 50.018 50.015 50.018 27.61 0 50.018-22.408 50.018-50.018 0-27.609-22.407-50.015-50.018-50.015-27.609 0-50.015 22.382-50.015 50.015v0zM466.896 551.54c0 27.609 22.406 50.015 50.015 50.015 27.612 0 50.019-22.406 50.019-50.015 0-27.609-22.408-50.018-50.019-50.018-27.609 0-50.015 22.385-50.015 50.018v0zM853.74 381.916c-22.989-148.967-158.732-299.942-351.947-299.942-36.782 0-75.999 7.275-107.598 19.959-33.607 13.49-48.851 29.354-51.907 39.693-1.594 5.398-3.092 11.296-4.68 17.542-4.65 18.302-9.922 39.045-20.252 56.259-18.376 30.618-44.815 37.045-63.76 37.045-7.166 0-14.798-0.914-22.675-2.712-12.865-2.936-25.363-4.424-37.141-4.424-25.123 0-67.464 6.665-68.765 51.308-6.59 227.942 180.734 351.748 369.298 373.326 13.337 1.525 27.603 2.296 42.403 2.296 53.124 0 111.543-10.001 152.463-26.099 9.248-3.638 14.375-6.016 39.204-18.184 25.653-12.57 46.348-30.432 62.898-47.642l30.158 53.075c-18.027 17.013-40.334 34.407-67.102 47.525-24.89 12.197-31.893 15.514-43.565 20.106-47.339 18.623-114.033 30.194-174.053 30.194-17.027 0-33.545-0.901-49.102-2.678-115.514-13.22-220.687-59.057-296.143-129.075-85.507-79.342-128.872-184.654-125.405-304.555 1.005-34.47 15.117-63.017 40.81-82.556 22.381-17.020 52.431-26.014 86.903-26.014 16.187 0 33.097 1.985 50.268 5.903 3.582 0.818 6.794 1.232 9.548 1.232 11.469 0 16.99-10.044 26.853-48.854 1.654-6.509 3.365-13.241 5.281-19.73 9.434-31.912 39.343-58.784 86.495-77.711 38.319-15.382 85.544-24.203 129.567-24.203 54.104 0 106.474 10.135 155.659 30.123 46.241 18.793 88.502 45.763 125.607 80.165 35.744 33.141 65.271 71.791 87.757 114.884 22.526 43.163 36.888 88.666 42.691 135.269 0.262 2.117 0.509 4.321 0.732 6.548l0.148 1.469v0.057c0.222 2.336 0.404 4.695 0.571 7.065l-61.218-16.661z"  horiz-adv-x="1024" />

    
    <glyph glyph-name="neicun" unicode="&#58928;" d="M863.438 615.875h-704c-17.673 0-32-14.327-32-32v-447.059c0-17.673 14.327-32 32-32h127.809c17.673 0 32 14.327 32 32V163.64h42.718v-56.375h64V163.64h51.947v-56.375h64V163.64h51.947v-56.375h64V163.64h45.608v-26.823c0-17.673 14.327-32 32-32h127.971c17.673 0 32 14.327 32 32V583.875c0 17.673-14.328 32-32 32z m-32-295.333h-33.559c-17.673 0-32-14.327-32-32s14.327-32 32-32h33.559v-87.726h-63.971V195.64c0 17.673-14.327 32-32 32H287.246c-17.673 0-32-14.327-32-32v-26.823h-63.809v87.726h32.559c17.673 0 32 14.327 32 32s-14.327 32-32 32h-32.559V551.875h640v-231.333zM256.477 500.443h80.279v-140h-80.279zM400.89 500.443h80.279v-140H400.89zM545.302 500.443h80.279v-140h-80.279zM689.715 500.443h80.279v-140h-80.279z"  horiz-adv-x="1024" />

    
    <glyph glyph-name="men" unicode="&#58889;" d="M761.344 776.704H226.816c-18.944 0-39.424-11.776-39.424-30.72V-25.6h614.4V747.52c0.512 18.944-22.016 29.184-40.448 29.184z m-537.6-768c-2.048 0-2.048 0 0 0L221.696 732.16c0 5.12 5.12 10.24 10.24 10.24h522.24c8.704 0 13.824-5.12 13.824-13.824v-720.384s0-1.536-1.536-1.536h-15.36V701.44c0 16.896-8.704 24.064-29.184 24.064H266.24c-18.944 0-27.136-8.704-27.136-24.064v-692.736h-15.36z m49.152 0V691.2H716.8v-682.496H272.896zM648.704 387.584c-16.896 0-32.256-13.824-32.256-32.256 0-16.896 13.824-32.256 32.256-32.256s32.256 13.824 32.256 32.256c0 16.896-13.824 32.256-32.256 32.256z"  horiz-adv-x="1024" />

    
    <glyph glyph-name="note" unicode="&#58893;" d="M814.32064 831.53408H209.024c-26.09152 0-47.31904-20.6592-47.31904-46.04928V-16.7936c0-25.39008 21.22752-46.04928 47.31904-46.04928h605.29664c26.09664 0 47.32416 20.6592 47.32416 46.04928V785.4848c0 25.39008-21.22752 46.04928-47.32416 46.04928z m16.62464-848.32256c0-8.45824-7.45984-15.34976-16.62464-15.34976H209.024c-9.1648 0-16.61952 6.89152-16.61952 15.34976V785.47968c0 8.46848 7.45472 15.34976 16.61952 15.34976h605.29664c9.1648 0 16.62464-6.88128 16.62464-15.34976v-802.26816z m-490.1632 262.9888h320.29696v-30.69952H340.78208v30.69952z m0 180.10112h320.29696v-30.69952H340.78208v30.69952z m0 186.24512h320.29696v-30.69952H340.78208v30.69952z"  horiz-adv-x="1024" />

    
    <glyph glyph-name="toxic" unicode="&#58943;" d="M318.051 378.458h-147.459c-27.311-0.007-49.449-22.149-49.449-49.461 0-2.766 0.227-5.48 0.664-8.122 18.495-111.906 82.049-206.486 171.075-265.893-11.616 7.897-1.204 4.124 10.088 4.124 18.388 0 34.439 10.002 43.011 24.861 28.569 50.656 55.449 98.047 73.316 129.418-59.769 32.95-99.905 95.009-101.283 166.56zM512.105 578.245c0.052 0 0.114 0 0.176 0 33.443 0 64.902-8.492 92.339-23.437l79.531 122.040c5.15 7.672 8.22 17.115 8.22 27.276 0 5.201-0.804 10.215-2.296 14.923-4.712 15.076-16.47 27.040-31.418 32.038-41.002 17.409-92.201 28.189-145.918 28.189-0.223 0-0.446-0-0.669-0.001-0.128 0-0.32 0-0.512 0-50.32 0-98.44-9.419-142.693-26.589-16.113-6.349-29.208-24.283-29.208-45.276 0-9.485 2.673-18.346 7.308-25.87 31.28-51.827 58.957-97.817 75.518-125.334 25.968 13.884 56.801 22.039 89.54 22.039 0.029 0 0.058-0 0.087-0zM704.98 406.262c0.821-6.703 1.29-14.463 1.29-22.333 0-68.96-35.977-129.518-90.185-163.927l68.639-122.609c7.994-14.077 22.421-23.345 38.601-24.81 16.115-1.465 30.384 6.561 42.327 17.58 85.195 78.475 126.121 178.83 133.255 254.184 1.274 13.281-0.414 26.657-8.535 37.231-8.17 10.442-20.638 17.196-34.697 17.579-59.639 2.645-115.916 5.384-150.694 7.104zM512.105 520.535c-0.042 0-0.091 0-0.14 0-32.558 0-62.448-11.425-85.878-30.485-30.859-25.018-50.581-63.227-50.581-106.043 0-0.003 0-0.005 0-0.008-0-1.879 0.127-3.694 0.191-5.541 3.086-73.013 63.025-131.035 136.516-131.035 12.754 0 25.099 1.747 36.81 5.016 57.49 16.128 99.646 68.922 99.649 131.562-0.054 75.395-61.169 136.498-136.564 136.534zM1024.009 392.344c-2.994 181.028-100.196 339.38-244.662 428.142-75.835 47.403-167.953 75.514-266.636 75.514-0.213 0-0.427-0-0.64-0-92.392 0-179.179-24.619-254.119-67.678-153.957-88.38-257.879-254.439-257.879-444.321 0-1.879 0.127-3.694 0.127-5.542 1.975-189.946 107.967-355.304 263.548-442.060 71.372-40.518 156.779-64.398 247.763-64.398 0.197 0 0.395 0 0.592 0 94.91-0 183.927 25.989 260.205 71.246 150.581 89.24 251.796 253.356 251.796 440.722 0.032 2.835-0.096 5.637-0.096 8.376zM734.218 10.287c-63.259-38.414-139.729-61.15-221.51-61.15-0.223 0-0.447 0-0.67 0.001-0.127-0-0.318-0-0.509-0-77.289 0-149.836 20.303-212.598 55.866-129.804 72.357-219.649 212.459-221.624 373.454l-0.032 5.542c0 162.014 88.985 303.614 220.743 378.426 61.368 35.474 134.991 56.404 213.504 56.404 0.205 0 0.41-0 0.615-0 82.17 0 159.021-22.931 224.629-62.615 122.936-74.462 206.188-208.036 210.074-360.973 0.127-3.694 0.127-7.484 0.127-11.274-0.032-158.67-85.418-297.722-212.749-373.681z"  horiz-adv-x="1029" />

    
    <glyph glyph-name="temperature-" unicode="&#58986;" d="M710.135 639.52h77.748c17.673 0 32 14.327 32 32s-14.327 32-32 32h-77.748c-17.673 0-32-14.327-32-32s14.327-32 32-32zM787.883 608.542h-77.748c-17.673 0-32-14.327-32-32s14.327-32 32-32h77.748c17.673 0 32 14.327 32 32s-14.327 32-32 32zM787.883 513.564h-77.748c-17.673 0-32-14.327-32-32s14.327-32 32-32h77.748c17.673 0 32 14.327 32 32s-14.327 32-32 32zM545.326 259.354l-0.966 349.595c0 17.174-13.925 31.099-31.099 31.099s-31.099-13.925-31.099-31.099l0.966-349.595c-44.96-13.382-83.984-55.024-83.984-104.331 0-60.114 48.732-108.847 108.847-108.847s108.847 48.732 108.847 108.847c0 49.307-26.552 90.948-71.512 104.331zM642.152 328.012V720.034c0 33.229-16.781 64.234-46.042 85.065-23.1 16.445-52.707 25.502-83.368 25.502-30.661 0-60.269-9.057-83.369-25.502-29.26-20.831-46.042-51.836-46.042-85.065V335.15c-22.444-15.486-41.893-35.096-57.366-58.02-24.513-36.317-37.469-78.74-37.469-122.682 0-29.603 5.812-58.354 17.275-85.456 11.059-26.145 26.876-49.612 47.013-69.75 20.137-20.138 43.604-35.956 69.749-47.014 27.102-11.463 55.854-17.276 85.458-17.276s58.356 5.813 85.458 17.276c26.145 11.059 49.612 26.877 69.75 47.014 20.137 20.138 35.954 43.604 47.013 69.75 11.463 27.102 17.275 55.853 17.275 85.456 0 41.331-11.589 81.611-33.513 116.487a220.334 220.334 0 0 1-51.822 57.077z m-134.161-329.06c-85.879 0-155.495 69.62-155.495 155.496 0 64.358 39.099 119.576 94.836 143.214V720.034c0 25.718 29.287 46.567 65.411 46.567 36.122 0 65.409-20.849 65.409-46.567v-426.949c50.589-25.656 85.334-78.03 85.334-138.637 0-85.876-69.616-155.496-155.495-155.496z"  horiz-adv-x="1024" />

    
    <glyph glyph-name="wind" unicode="&#59061;" d="M143.283 452.227h380.216c37.971 0 73.8 14.918 100.889 42.007s42.008 62.918 42.008 100.889-14.919 73.8-42.008 100.889c-27.088 27.089-62.918 42.007-100.889 42.007-37.97 0-73.8-14.918-100.889-42.007s-42.007-62.919-42.007-100.889c0-17.673 14.327-32 32-32 17.673 0 32 14.327 32 32 0 43.504 35.393 78.896 78.896 78.896s78.896-35.393 78.896-78.896-35.393-78.896-78.896-78.896H143.283c-17.673 0-32-14.327-32-32s14.328-32 32-32zM913.893 580.412c-27.088 27.089-62.918 42.007-100.889 42.007s-73.801-14.918-100.889-42.007c-27.089-27.089-42.008-62.918-42.008-100.889 0-17.673 14.327-32 32-32s32 14.327 32 32c0 43.504 35.393 78.896 78.896 78.896s78.896-35.393 78.896-78.896-35.393-78.896-78.896-78.896H100.099c-17.673 0-32-14.327-32-32s14.327-32 32-32h712.905c37.971 0 73.8 14.919 100.889 42.007 27.089 27.089 42.008 62.919 42.008 100.889s-14.919 73.8-42.008 100.889zM618.034 276.355a31.885 31.885 0 0 1-12.3 2.453H288.887c-17.673 0-32-14.327-32-32s14.327-32 32-32h304.524c32.748 0 60.414-27.666 60.414-60.414 0-32.747-27.666-60.413-60.414-60.413-32.747 0-60.413 27.666-60.413 60.413 0 17.673-14.327 32-32 32-17.673 0-32-14.327-32-32 0-33.066 12.987-64.264 36.568-87.845 23.582-23.582 54.779-36.568 87.845-36.568 33.067 0 64.265 12.986 87.846 36.568 23.581 23.581 36.568 54.778 36.568 87.845s-12.986 64.264-36.568 87.846c-17.621 17.62-39.495 29.323-63.223 34.115z"  horiz-adv-x="1024" />

    
    <glyph glyph-name="router" unicode="&#58898;" d="M62 83.997c0 82.845 67.18 149.997 149.95 149.997h1050.071c82.817 0 149.95-67.142 149.95-149.997 0-82.845-67.18-149.997-149.95-149.997h-1050.071c-82.817 0-149.95 67.142-149.95 149.997zM99.499 83.997c0-62.146 50.343-112.497 112.451-112.497h1050.071c62.079 0 112.45 50.379 112.45 112.497 0 62.146-50.343 112.497-112.45 112.497h-1050.071c-62.079 0-112.451-50.379-112.451-112.497zM718.236 815.25c0 10.356 8.394 18.75 18.75 18.75s18.75-8.394 18.75-18.75v-618.757h-37.499v618.757zM305.745 815.25c0.003 10.354 8.396 18.745 18.75 18.745s18.747-8.392 18.75-18.745v-618.757h-37.499v618.757zM1130.728 815.25c0 10.356 8.394 18.75 18.75 18.75s18.75-8.394 18.75-18.75v-618.757h-37.499v618.757zM680.737 102.746h149.997v-74.999h-149.997zM1018.229 102.746h149.997v-74.999h-149.997z"  horiz-adv-x="1536" />

    
    <glyph glyph-name="houseplant" unicode="&#59118;" d="M440.7-62.2C1153 119.5 923.5 832.5 923.5 832.5S539.8 728.4 398.8 427.1C287.1 580.8 88 608.8 88 608.8c-136.2-629.1 352.7-671 352.7-671zM428 10.1c-57.1 265.8-54.4 405.2 237.1 634.1 58.7 46.1 124.7 76.1 189.4 103.4 22.6 9.5 28.8 11.7 28.8 11.7s1-5.3 1.5-8c21.8-119 22.9-245.4-10-362C822.7 204.4 693 72.1 460.2 10.1l313.9 549.8c3.8 6.7 1.5 15.2-5.2 19.1-6.7 3.8-15.2 1.5-19.1-5.2L428 10.1zM347.2 119.8c4-34 10.8-69.3 20.9-106.2-129.5 52.3-204.7 142.8-237.5 262.8-23.9 87.5-23.2 182.3-7.3 271.5 0.4 2 1.1 6 1.1 6s4.5-1.6 21-8.8c47.1-20.5 94.2-46.3 137.9-77.6 37.3-26.7 68.5-55 94.1-84.9-22.3-58.7-35.1-124.1-34.4-196.7L215.5 419.8c-3.7 6.8-12.2 9.3-19 5.6s-9.3-12.2-5.6-19l156.3-286.6z"  horiz-adv-x="1024" />

    
    <glyph glyph-name="airconditioningind" unicode="&#59122;" d="M500.6 242.5c37.1-58.4 34.2-76.3 1.9-108.6-41.2-41.2-46.4-73.4-1.9-143.4 4.2-6.5 12.8-8.4 19.3-4.3 6.5 4.2 8.4 12.8 4.3 19.3-37.1 58.4-34.2 76.3-1.9 108.6 41.2 41.2 46.4 73.4 1.9 143.4-4.2 6.5-12.8 8.4-19.3 4.3-6.5-4.1-8.5-12.8-4.3-19.3zM276.6 242.5c37.1-58.4 34.2-76.3 1.9-108.6-41.2-41.2-46.4-73.4-1.9-143.4 4.2-6.5 12.8-8.4 19.3-4.3 6.5 4.2 8.4 12.8 4.3 19.3-37.1 58.4-34.2 76.3-1.9 108.6 41.2 41.2 46.4 73.4 1.9 143.4-4.2 6.5-12.8 8.4-19.3 4.3-6.5-4.1-8.4-12.8-4.3-19.3zM726.5 133.9c-41.2-41.2-46.4-73.4-1.9-143.4 4.2-6.5 12.8-8.4 19.3-4.3 6.5 4.2 8.4 12.8 4.3 19.3-37.1 58.4-34.2 76.3-1.9 108.6 41.2 41.2 46.4 73.4 1.9 143.4-4.2 6.5-12.8 8.4-19.3 4.3-6.5-4.2-8.4-12.8-4.3-19.3 37.1-58.4 34.2-76.3 1.9-108.6zM64.4 669.9v-223.8c0-61.9 50.1-112.1 112-112.1h672c61.8 0 112 50.2 112 112.1V669.9c0 61.9-50.1 112.1-112 112.1h-672c-61.8 0-112-50.2-112-112.1zM120.4 669.9c0 30.9 25.1 56.1 56 56.1h672c30.9 0 56-25.1 56-56.1v-223.8c0-30.9-25.1-56.1-56-56.1h-672c-30.9 0-56 25.1-56 56.1V669.9zM400.4 628c0 23.1 18.4 42 41.7 42h84.5c23.2 0 41.7-19.1 41.7-42 0-23.1-18.4-42-41.7-42h-84.5c-23.1 0-41.7 19.1-41.7 42zM232.4 628c0 23.2 19 42 42 42 23.2 0 42-19 42-42 0-23.2-19-42-42-42-23.2 0-42 19-42 42zM246.4 502h532v28h-532v-28zM246.4 446h532v28h-532v-28zM428.4 628c0-7.5 6.1-14 13.7-14h84.5c7.7 0 13.7 6.3 13.7 14 0 7.5-6.1 14-13.7 14h-84.5c-7.7 0-13.7-6.3-13.7-14zM260.4 628c0-7.5 6.3-14 14-14 7.5 0 14 6.3 14 14 0 7.5-6.3 14-14 14-7.5 0-14-6.3-14-14z"  horiz-adv-x="1024" />

    
    <glyph glyph-name="electricity_icon" unicode="&#58990;" d="M793.684 538.429c-4.666 9.685-14.406 16.25-25.68 16.25-0.008 0-0.016-0-0.023-0l-188.686 0 178.939 298.242c2.55 4.179 4.060 9.235 4.060 14.643 0 15.705-12.731 28.436-28.436 28.436-0.005 0-0.011-0-0.016-0l-273.052 0c-11.908-0.001-22.108-7.317-26.35-17.699l-204.863-512.176c-1.285-3.126-2.032-6.754-2.032-10.557 0-15.71 12.736-28.446 28.446-28.446 0.001 0 0.003 0 0.004 0l129.614-0-156.238-416.654c-1.154-2.976-1.823-6.42-1.823-10.020 0-15.71 12.736-28.446 28.446-28.446 8.869 0 16.79 4.059 22.007 10.42l512.026 625.81c3.991 4.858 6.411 11.14 6.411 17.986 0 4.438-1.016 8.638-2.829 12.38zM343.187 51.939l110.108 293.634c1.148 2.968 1.813 6.404 1.813 9.994 0 15.707-12.73 28.441-28.436 28.446l-128.693 0 182.073 455.094h203.545l-178.939-298.242c-2.55-4.179-4.060-9.235-4.060-14.643 0-15.705 12.731-28.436 28.436-28.436 0.005 0 0.011 0 0.016 0l178.908-0z"  horiz-adv-x="1024" />

    
    <glyph glyph-name="diannao" unicode="&#59051;" d="M92.409 588.857H756.814V170.2H63.579V588.857h28.83z m566.928-524.578h299.997V721.463H659.337v-89.376h274.935V523.52H800.06v-24.948h134.212v-108.566H800.06v-263.051H659.337v-62.676zM874.891 350.06h55.499v-31.36h-55.499v31.36z m0-51.86h55.499v-31.375h-55.499V298.2z m-74.832 306.536h106.86v-53.877h-106.86v53.877z m0-133.501h106.86v-53.877h-106.86v53.877zM245.628 97.331h50.508v53.381h222.449v-53.381h44.823v-33.052h-317.78v33.052z m434.378 420.191H143.117v-276h536.889v276z"  horiz-adv-x="1024" />

    
    <glyph glyph-name="cpu_icon" unicode="&#59052;" d="M351.997 197.337h320.006c0.006 0 0.012 0 0.019 0 14.718 0 26.649 11.932 26.649 26.649 0 0.007 0 0.013 0 0.021v319.996c0 0.006 0 0.012 0 0.019 0 14.718-11.932 26.649-26.649 26.649-0.007 0-0.013 0-0.021 0h-320.005c-0.006 0-0.012 0-0.019 0-14.718 0-26.649-11.932-26.649-26.649 0-0.007 0-0.013 0-0.021v-320.005c0-0.003 0-0.007 0-0.009 0-14.718 11.932-26.649 26.649-26.649 0.007 0 0.013 0 0.021 0zM378.666 517.334h266.669v-266.669h-266.669zM965.331 424.003c14.729 0 26.669 11.94 26.669 26.669s-11.94 26.669-26.669 26.669h-93.331v79.997h93.331c14.729 0 26.669 11.94 26.669 26.669s-11.94 26.669-26.669 26.669h-93.331v106.656c0 0.006 0 0.012 0 0.019 0 14.718-11.932 26.649-26.649 26.649-0.007 0-0.013 0-0.021 0h-106.665v93.331c0 0 0 0 0 0 0 14.729-11.94 26.669-26.669 26.669-14.729 0-26.669-11.94-26.669-26.669 0 0 0 0 0 0v-93.331h-79.997v93.331c0 0 0 0 0 0 0 14.729-11.94 26.669-26.669 26.669-14.729 0-26.669-11.94-26.669-26.669 0 0 0 0 0 0v-93.331h-79.997v93.331c0 14.729-11.94 26.669-26.669 26.669s-26.669-11.94-26.669-26.669v-93.331h-79.997v93.331c0 14.729-11.94 26.669-26.669 26.669s-26.669-11.94-26.669-26.669v-93.331h-106.656c-0.006 0-0.012 0-0.019 0-14.718 0-26.649-11.932-26.649-26.649 0-0.007 0-0.013 0-0.021v-106.665h-93.331c-14.729 0-26.669-11.94-26.669-26.669s11.94-26.669 26.669-26.669h93.331v-79.997h-93.331c-14.729 0-26.669-11.94-26.669-26.669s11.94-26.669 26.669-26.669h93.331v-79.997h-93.331c0 0 0 0 0 0-14.729 0-26.669-11.94-26.669-26.669 0-14.729 11.94-26.669 26.669-26.669 0 0 0 0 0 0h93.331v-79.997h-93.331c0 0 0 0 0 0-14.729 0-26.669-11.94-26.669-26.669 0-14.729 11.94-26.669 26.669-26.669 0 0 0 0 0 0h93.331v-106.656c0-0.006 0-0.012 0-0.019 0-14.718 11.932-26.649 26.649-26.649 0.007 0 0.013 0 0.021 0h106.665v-93.331c0-14.729 11.94-26.669 26.669-26.669s26.669 11.94 26.669 26.669v93.331h79.997v-93.331c0-14.729 11.94-26.669 26.669-26.669s26.669 11.94 26.669 26.669v93.331h79.997v-93.331c0 0 0 0 0 0 0-14.729 11.94-26.669 26.669-26.669 14.729 0 26.669 11.94 26.669 26.669 0 0 0 0 0 0v93.331h79.997v-93.331c0 0 0 0 0 0 0-14.729 11.94-26.669 26.669-26.669 14.729 0 26.669 11.94 26.669 26.669 0 0 0 0 0 0v93.331h106.656c0.006 0 0.012 0 0.019 0 14.718 0 26.649 11.932 26.649 26.649 0 0.007 0 0.013 0 0.021v106.665h93.331c0 0 0 0 0 0 14.729 0 26.669 11.94 26.669 26.669 0 14.729-11.94 26.669-26.669 26.669 0 0 0 0 0 0h-93.331v79.997h93.331c0 0 0 0 0 0 14.729 0 26.669 11.94 26.669 26.669 0 14.729-11.94 26.669-26.669 26.669 0 0 0 0 0 0h-93.331v79.997zM818.663 77.337h-613.325v613.325h613.325z"  horiz-adv-x="1024" />

    
    <glyph glyph-name="fuwuqi" unicode="&#58887;" d="M755.2 56.32a34.304 34.304 0 1 0 36.352 34.304 34.816 34.816 0 0 0-36.352-34.304m-116.736 0a34.304 34.304 0 1 0 36.352 34.304 34.816 34.816 0 0 0-36.352-34.304z m-416.256 68.096h204.8v-68.096h-204.8z m-55.296 81.92h-61.44v-190.976a41.472 41.472 0 0 1 44.032-40.96h729.6a42.496 42.496 0 0 1 44.032 40.96v190.976z m589.824 436.736A37.376 37.376 0 0 0 716.8 675.84a36.864 36.864 0 0 0 34.816 35.328 37.376 37.376 0 0 0 37.888-32.768 35.84 35.84 0 0 0-32.768-35.328z m-116.736 0a39.936 39.936 0 0 0-33.792 16.384 32.256 32.256 0 0 0 0 34.304 37.376 37.376 0 0 0 68.608-14.848 33.792 33.792 0 0 0-34.816-35.84zM222.208 711.68h204.8v-68.608h-204.8zM861.696 793.6H167.936a59.904 59.904 0 0 1-61.44-57.344v-175.104h819.2V736.256A61.952 61.952 0 0 1 861.696 793.6zM222.208 411.136h204.8v-68.096h-204.8z m414.72 0a36.864 36.864 0 0 0 33.792-20.48 31.744 31.744 0 0 0-7.168-36.864 41.472 41.472 0 0 0-39.424-8.192 35.84 35.84 0 0 0-23.552 31.232 36.864 36.864 0 0 0 36.352 34.304z m116.736 0a37.376 37.376 0 0 0 37.888-32.768 36.864 36.864 0 0 0-34.816-35.328 37.376 37.376 0 0 0-37.888 32.768 35.84 35.84 0 0 0 34.816 35.328zM105.472 261.12H921.6V493.056H102.4z"  horiz-adv-x="1024" />

    
    <glyph glyph-name="switch-ON" unicode="&#59353;" d="M764 644H260C116.4 644 0 527.6 0 384s116.4-260 260-260h504c143.6 0 260 116.4 260 260S907.6 644 764 644z m0-484c-123.7 0-224 100.3-224 224s100.3 224 224 224 224-100.3 224-224-100.3-224-224-224z"  horiz-adv-x="1024" />

    
    <glyph glyph-name="switch-OFF" unicode="&#59354;" d="M764 644H260C116.4 644 0 527.6 0 384s116.4-260 260-260h504c143.6 0 260 116.4 260 260S907.6 644 764 644zM260 160C136.3 160 36 260.3 36 384s100.3 224 224 224 224-100.3 224-224-100.3-224-224-224z"  horiz-adv-x="1024" />

    
    <glyph glyph-name="chuangkou" unicode="&#59186;" d="M378.4 142.6L358 163l72.1 72.1 20.4-20.4-72.1-72.1zM560 509.2l43.3 43.3 20.4-20.4-43.3-43.3-20.4 20.4z m298.7-125.6h-72.1v28.8h72.1v-28.8z m0-346.2H701.6c14.9 131.4 66.7 279.4 80.6 317.3h15.1c-5.3-24.4-15.1-73-25-142.2l28.5-4.1c10.6 74.2 21.3 125.2 26 146.3h31.8v-317.3h0.1zM525 268.2c18.9 10.5 34.6 26.2 45.1 45.1 10.5-18.9 26.2-34.6 45.1-45.1-18.9-10.5-34.6-26.2-45.1-45.1-10.4 18.9-26.1 34.6-45.1 45.1z m1.9-230.8V231.6c17.7-15.9 28.8-38.8 28.8-64.3h28.8c0 47.7 38.8 86.5 86.5 86.5v28.8c-47.7 0-86.5 38.8-86.5 86.5h-28.8c0-25.5-11.2-48.5-28.8-64.3V729.7h102.4c3.6-29.9 15.9-105.5 51.9-185.9l-99.6-99.6 20.4-20.4 92.4 92.4c16.7-32.4 37.4-64.9 63.3-94.7v-49.7c-8.6-22.7-69.1-186.7-85.1-334.4H526.9zM498.1 646.6c-43.5 9.9-78.7 41.7-93.4 83.2h93.4v-83.2z m0-358.9c-9-3.2-18.7-5-28.8-5v-28.8c10.1 0 19.8-1.8 28.8-5v-211.3H352.4c-6.9 63.1-21.8 129.2-37.4 186l121.1 121.1-20.4 20.4L306 255.2c-17.8 60.5-34.5 105.5-38.7 116.7v50c35 41.2 60.6 97.6 77.1 137.6 15-21.2 23.9-47 23.9-74.8h28.8c0 61.7 43.2 113.3 101 126.5v-323.5zM166.3 37.4v37.3l125 125c13.5-51 25.9-108.1 32.1-162.3H166.3z m0 317.3h76.5c6.9-18.9 23.2-65.1 39.7-123L166.3 115.5V354.7z m0 57.7h72.1v-28.8h-72.1v28.8z m0 317.4h194.4C342.8 679.5 294.9 643.3 238.5 643.3v-28.8c32.2 0 61.7-11.9 84.4-31.4-15.3-38-41.2-99.3-76.9-141.7h-79.7V729.8z m216.4-22.8c15.9-34.5 43.7-62.3 78.2-78.2-34.5-15.9-62.3-43.7-78.2-78.2-15.9 34.5-43.7 62.3-78.2 78.2 34.5 15.9 62.3 43.7 78.2 78.2z m476 22.8V441.3h-79.9c-25.9 30.2-46.5 63.4-62.7 96.6l95.1 95.1-20.4 20.4-87.5-87.4c-29.5 70-40.9 135-44.8 163.8h200.2z m28.8-375.1V758.6H397.9c-0.5 4.7-0.9 9.5-0.9 14.4h-28.8c0-4.9-0.3-9.7-0.9-14.4H137.5v-750h750.1l-0.1 346.1z m43.3-389.4H94.2v836.6h836.6V-34.7zM65.3 830.8v-894.3h894.3v894.3H65.3z"  horiz-adv-x="1024" />

    
    <glyph glyph-name="eryanghuatan" unicode="&#59430;" d="M707.52 203.488a124.32 124.32 0 0 0 2.88 28.16c2.016 8.672 5.12 17.088 9.28 24.96 4.416 8.192 9.664 15.936 15.68 23.04 6.848 8.16 14.208 15.872 22.08 23.04l18.56 17.28c4.512 3.808 8.672 7.968 12.48 12.48a53.76 53.76 0 0 1 7.36 11.52c1.664 3.968 2.752 8.192 3.2 12.48a136.64 136.64 0 0 1 0 15.36 22.688 22.688 0 0 1-22.4 28.16 20.8 20.8 0 0 1-21.44-13.12c-1.92-4.48-3.104-9.216-3.52-14.08v-16.96h-44.16v7.68a65.824 65.824 0 0 0 16.96 48.64 72.96 72.96 0 0 0 53.44 16.96 71.712 71.712 0 0 0 51.2-16c11.712-12.256 17.76-28.864 16.64-45.76 0.032-6.752-0.608-13.536-1.92-20.16-1.28-6.208-3.328-12.224-6.08-17.92-2.944-6.08-6.592-11.776-10.88-16.96a160.256 160.256 0 0 0-16.32-16.64l-25.6-23.68a96.896 96.896 0 0 1-16-17.92c-3.264-4.672-5.76-9.888-7.36-15.36h84.48v-35.2h-139.52 0.96z m-197.12 120c0.64-14.208 2.976-28.288 7.04-41.92 2.528-9.312 7.904-17.568 15.36-23.68a50.56 50.56 0 0 1 52.8 0c7.456 6.112 12.832 14.368 15.36 23.68 4.032 13.632 6.4 27.712 7.04 41.92 1.28 17.28 1.92 38.624 1.92 64 0 25.376-0.64 46.72-1.92 64a178.944 178.944 0 0 1-7.04 41.92 46.848 46.848 0 0 1-15.36 23.68 50.56 50.56 0 0 1-52.8 0c-7.424-6.112-12.8-14.4-15.36-23.68a177.312 177.312 0 0 1-7.04-41.92c-1.28-17.056-1.92-38.4-1.92-64s0.64-46.944 1.92-64z m-71.68 139.2a168.832 168.832 0 0 0 16.96 60.16 96 96 0 0 0 37.76 39.04 162.016 162.016 0 0 0 132.16 0 96 96 0 0 0 37.76-39.04c9.344-18.816 15.104-39.232 16.96-60.16a766.72 766.72 0 0 0 0-153.28 168.512 168.512 0 0 0-16.96-59.84c-8.352-16.352-21.536-29.76-37.76-38.4a170.56 170.56 0 0 0-132.16 0 89.792 89.792 0 0 0-37.76 38.4 168.512 168.512 0 0 0-16.96 59.84 766.72 766.72 0 0 0 0 153.28z m-124.48 40.96a35.52 35.52 0 0 1-34.56 18.24 34.56 34.56 0 0 1-22.72-7.36 49.376 49.376 0 0 1-14.08-24 204.48 204.48 0 0 1-7.04-43.52c-1.28-17.92-1.92-39.904-1.92-65.92-0.224-22.432 0.736-44.864 2.88-67.2 1.056-13.568 3.968-26.912 8.64-39.68 2.624-7.776 7.808-14.432 14.72-18.88 6.4-3.328 13.568-4.992 20.8-4.8 6.24-0.096 12.416 0.96 18.24 3.2 6.208 2.784 11.36 7.52 14.72 13.44 4.8 8.768 8.032 18.304 9.6 28.16 2.656 15.84 3.84 31.936 3.52 48h73.6c0.128-18.88-1.376-37.696-4.48-56.32a128.288 128.288 0 0 0-17.28-46.72 85.152 85.152 0 0 0-35.2-32 133.504 133.504 0 0 0-59.2-11.2 139.136 139.136 0 0 0-65.92 13.44 89.792 89.792 0 0 0-37.76 38.4 168.512 168.512 0 0 0-16.96 59.84 766.72 766.72 0 0 0 0 153.28 168.832 168.832 0 0 0 16.96 60.16 96 96 0 0 0 37.76 39.04 132.896 132.896 0 0 0 65.92 14.08 128.128 128.128 0 0 0 62.08-12.8c14.016-7.392 25.728-18.432 33.92-32 7.488-13.088 12.288-27.584 14.08-42.56 1.824-14.208 2.784-28.544 2.88-42.88h-73.6a132.864 132.864 0 0 1-9.6 58.56z"  horiz-adv-x="1024" />

    
    <glyph glyph-name="taiyangfushe" unicode="&#59468;" d="M736 128a31.968 31.968 0 0 0-22.72 9.28l-160 160a32 32 0 0 0 45.12 45.12l160-160A32.032 32.032 0 0 0 736 128z m32 160a31.968 31.968 0 0 0-22.72 9.28l-128 128a32 32 0 0 0 45.12 45.12l128-128A32.032 32.032 0 0 0 768 288z m0 192a31.968 31.968 0 0 0-22.72 9.28l-128 128A32 32 0 0 0 662.4 662.4l128-128A32.032 32.032 0 0 0 768 480z m-192-384a31.968 31.968 0 0 0-22.72 9.28l-128 128a32 32 0 0 0 45.12 45.12l128-128A32.032 32.032 0 0 0 576 96z m-192 0a31.968 31.968 0 0 0-22.72 9.28l-128 128A32 32 0 0 0 278.4 278.4l128-128A32.032 32.032 0 0 0 384 96z m0 512a96 96 0 1 0 0-192 96 96 0 0 0 0 192z m0 64a160 160 0 1 1 0.032-320.032A160 160 0 0 1 384 672z"  horiz-adv-x="1024" />

    
    <glyph glyph-name="qiya" unicode="&#59487;" d="M528.64 446.272l112.768 112.768a32 32 0 1 0 45.088-45.088l-111.488-111.488a64 64 0 1 0-46.368 43.808zM801.728 224h-192a32 32 0 0 0 0 64h192a32 32 0 0 0 0-64z m0-160h-64a32 32 0 0 0 0 64h64a32 32 0 0 0 0-64z m-192 0h-296.96a112.32 112.32 0 1 0 0 224h104.96a32 32 0 0 0 0-64h-104.96a48.32 48.32 0 1 1 0-95.968h296.96a32 32 0 0 0 0-64V64z m-253.76 521.6a254.88 254.88 0 0 0 125.76 52.416V608a32 32 0 0 1 64 0v30.016A256.096 256.096 0 0 0 767.744 416h-30.016a32 32 0 0 1 0-64h64a31.904 31.904 0 0 1 32 32c0 176.736-143.264 320-320 320s-320-143.264-320-320a31.904 31.904 0 0 1 32-32h64a32 32 0 0 1 0 64h-30.016a254.432 254.432 0 0 0 51.296 124.32l9.76-9.76a31.968 31.968 0 0 1 22.72-9.28 32.064 32.064 0 0 1 22.4 54.4l-9.92 9.92z"  horiz-adv-x="1024" />

    
    <glyph glyph-name="icon-pm" unicode="&#58885;" d="M75.434667 318.805333c-21.560889 0-39.111111-16.711111-39.111111-37.304889 0-20.579556 17.550222-37.319111 39.111111-37.319111 21.589333 0 39.139556 16.739556 39.139555 37.319111 0 20.593778-17.550222 37.304889-39.139555 37.304889z m148.679111 59.733334c-17.251556 0-31.288889-13.397333-31.288889-29.880889 0-16.426667 13.980444-29.767111 31.288889-29.852445 17.28 0 31.331556 13.397333 31.331555 29.852445 0 16.426667-13.994667 29.795556-31.331555 29.866666z m-39.111111 343.281777c21.575111 0 39.111111 16.739556 39.111111 37.304889 0 20.579556-17.507556 37.319111-39.111111 37.319111-21.560889 0-39.125333-16.739556-39.125334-37.319111 0-20.593778 17.536-37.304889 39.139556-37.304889z m696.462222-59.704888c17.251556 0 31.288889 13.397333 31.288889 29.852444 0 16.426667-13.952 29.767111-31.288889 29.852444-17.265778 0-31.303111-13.397333-31.303111-29.852444 0-16.426667 13.980444-29.767111 31.288889-29.852444z m-242.631111-74.624c30.250667 0 54.812444 23.424 54.812444 52.238222s-24.561778 52.238222-54.769778 52.238222c-30.208 0-54.769778-23.424-54.769777-52.238222s24.561778-52.238222 54.755555-52.238222h-0.014222z m-226.872889 74.624c-26.026667-0.113778-47.032889-20.138667-46.976-44.771556-0.056889-24.661333 20.963556-44.686222 46.933333-44.8 25.912889 0 46.976 20.110222 46.976 44.8 0.056889 24.632889-20.949333 44.657778-46.961778 44.771556h0.028445zM821.902222 256.967111c-36.209778 0-65.635556-28.088889-65.635555-62.634667 0-34.56 29.454222-62.648889 65.635555-62.648888 36.224 0 65.678222 28.088889 65.678222 62.648888 0 34.545778-29.454222 62.634667-65.678222 62.634667z m-269.141333-57.528889c-17.28 0-31.331556-13.397333-31.331556-29.866666 0-16.412444 13.994667-29.752889 31.331556-29.838223 17.251556 0 31.288889 13.397333 31.288889 29.852445 0 16.426667-13.980444 29.795556-31.288889 29.852444z m62.606222 117.290667c17.351111-0.085333 31.331556-13.425778 31.288889-29.880889 0-16.426667-14.037333-29.866667-31.288889-29.866667-17.351111 0.099556-31.331556 13.44-31.303111 29.866667 0 16.483556 14.037333 29.866667 31.288889 29.866667z m146.275556-355.868445c-108.472889 0-184.177778 42.936889-189.312 45.980445-313.685333 191.701333-510.179556 4.465778-518.4-3.598222a32.455111 32.455111 0 0 0-44.231111-0.753778 28.885333 28.885333 0 0 0-0.896 42.126222c2.304 2.304 239.118222 231.438222 596.736 12.8 6.528-3.740444 177.692444-99.271111 368.654222 33.507556a32.384 32.384 0 0 0 23.296 5.390222 31.672889 31.672889 0 0 0 20.437333-11.904c10.168889-13.312 7.111111-31.985778-6.883555-41.713778-90.225778-62.72-177.066667-81.834667-249.400889-81.834667zM123.704889 530.616889h79.729778c44.785778 0 67.171556-19.114667 67.171555-57.344 0-38.499556-22.656-57.884444-67.441778-57.884445h-57.073777V335.644444H123.704889V530.616889z m22.385778-19.384889v-76.458667h55.978666c15.843556 0 27.306667 3.271111 34.958223 9.557334 7.367111 6.272 11.192889 15.829333 11.192888 28.942222 0 13.098667-3.825778 22.656-11.477333 28.401778-7.637333 6.542222-19.114667 9.557333-34.673778 9.557333h-55.978666z m152.917333 19.384889V335.644444h22.385778V490.752h0.824889L389.660444 335.644444h20.209778l67.456 155.107556h0.810667V335.644444h22.4V530.616889h-27.861333l-72.362667-166.300445h-0.810667l-72.647111 166.300445h-27.847111z m305.834667 3.825778c-19.655111 0-35.768889-6.556444-47.786667-19.669334-12.017778-12.828444-18.289778-30.307556-18.289778-52.152889h22.385778c0.284444 17.208889 4.366222 30.307556 12.017778 39.054223 7.096889 9.272889 17.479111 13.653333 30.862222 13.653333 12.558222 0 22.656-3.271111 29.752889-9.841778 7.111111-6.542222 10.652444-15.559111 10.652444-27.576889 0-12.558222-5.191111-24.305778-15.018666-34.944-5.191111-5.461333-15.288889-13.383111-30.577778-24.32-20.764444-14.193778-34.688-25.927111-42.325333-34.673777-13.112889-14.464-19.399111-30.577778-19.399112-48.327112h129.991112v19.939556h-102.4c3.555556 13.098667 17.749333 28.117333 42.595555 44.771556 20.195556 13.653333 33.578667 24.32 40.405333 31.402666 12.572444 13.653333 19.114667 28.956444 19.114667 45.880889s-6.001778 30.862222-17.464889 41.244445c-11.747556 10.368-26.496 15.559111-44.515555 15.559111z m115.228444-166.300445c-4.906667 0-8.732444-1.635556-11.733333-4.920889-3.271111-3.271111-4.920889-7.096889-4.920889-12.017777 0-4.636444 1.635556-8.462222 4.920889-11.733334 3.000889-3.271111 6.826667-4.920889 11.733333-4.920889 4.380444 0 8.476444 1.635556 11.747556 4.920889 3.271111 3.271111 4.920889 7.096889 4.920889 11.733334a16.071111 16.071111 0 0 1-4.920889 12.017777 16.327111 16.327111 0 0 1-11.747556 4.920889z m64.711111 162.474667l-10.368-107.591111h21.304889a38.684444 38.684444 0 0 0 17.479111 17.479111c7.367111 4.096 15.559111 6.001778 24.846222 6.001778 14.193778 0 25.386667-4.096 33.308445-12.828445 8.192-8.462222 12.558222-20.48 12.558222-36.053333 0-13.653333-4.636444-24.846222-13.368889-33.578667-9.016889-8.746667-20.209778-13.112889-33.863111-13.112889-12.017778 0-22.115556 3.000889-29.767111 8.746667-8.732444 6.542222-13.653333 16.099556-14.748444 28.387556h-22.115556c1.365333-17.749333 8.732444-31.943111 22.385778-42.325334 12.017778-9.272889 26.766222-13.923556 43.975111-13.923555 19.114667 0 35.498667 6.016 48.597333 17.749333 13.937778 12.558222 21.034667 28.672 21.034667 48.341333 0 21.020444-6.016 37.404444-17.493333 49.422223-11.463111 11.733333-26.481778 17.479111-45.041778 17.479111-9.016889 0-17.208889-1.365333-24.846222-4.650667a50.688 50.688 0 0 1-21.034667-14.748444h-1.095111l6.556444 65.28h95.032889v19.911111H784.782222z"  horiz-adv-x="1024" />

    
    <glyph glyph-name="icon-co" unicode="&#58899;" d="M823.962596 556.942222c88.206222-0.739556 100.764444 5.333333 149.134222-46.933333 85.12 32.568889 45.269333 173.539556-49.607111 151.011555 9.031111 63.971556-107.093333 185.870222-208.142223 46.577778 2.872889-1.28 114.744889-48.341333 108.615112-150.656zM349.438151 384c-40.533333 0-71.466667-13.155556-92.8-40.177778-18.858667-23.466667-28.103111-54.4-28.103111-92.088889 0-38.4 8.888889-68.977778 27.022222-91.733333 20.622222-26.311111 52.266667-39.822222 94.577778-39.822222 27.392 0 50.858667 7.822222 70.4 23.466666 20.992 16.711111 34.133333 39.822222 39.822222 69.688889h-40.533333c-4.977778-19.2-13.511111-33.777778-25.6-43.377777-11.377778-8.533333-26.311111-13.155556-44.444445-13.155556-27.733333 0-48.355556 8.888889-61.511111 25.955556-12.088889 16-18.119111 39.111111-18.119111 68.977777 0 29.155556 6.044444 51.911111 18.488889 68.266667 13.511111 18.488889 33.422222 27.377778 60.074667 27.377778 17.777778 0 32.369778-3.555556 43.733333-11.377778 11.747556-7.822222 19.555556-19.911111 23.822222-36.622222h40.533334c-3.911111 25.6-14.933333 46.222222-33.422223 61.155555-19.2 15.644444-44.088889 23.466667-73.955555 23.466667z m262.755556 0c38.755556 0 69.333333-12.444444 91.733333-37.688889 21.333333-23.822222 32-55.466667 32-94.577778 0-39.111111-10.666667-70.4-32-94.222222-22.4-24.888889-52.977778-37.333333-91.733333-37.333333-39.111111 0-69.688889 12.8-91.733334 37.688889-21.333333 24.177778-31.658667 55.466667-31.658666 93.866666 0 38.755556 10.311111 70.044444 31.644444 94.222223 22.044444 25.6 52.622222 38.044444 91.733333 38.044444z m0-36.622222c-26.311111 0-46.577778-8.888889-61.155556-26.666667-13.866667-17.066667-20.622222-39.822222-20.622222-68.977778 0-28.8 6.755556-51.555556 20.622222-68.622222 14.222222-17.422222 34.844444-26.311111 61.155556-26.311111 26.311111 0 46.577778 8.533333 60.8 25.244444 13.852444 16.711111 20.963556 39.822222 20.963555 69.688889 0 29.866667-7.111111 53.333333-20.963555 70.4-14.222222 17.066667-34.488889 25.244444-60.814223 25.244445zM848.140373 497.635556l7.196445-3.015112c112.839111-47.075556 173.624889-148.622222 168.462222-259.925333-4.949333-107.064889-70.755556-199.708444-169.671111-224.853333l-5.191111-1.308445-712.248889 0.583111-6.656 2.275556C62.604373 34.289778 8.574151 115.413333 1.022151 202.154667-7.866738 304.113778 45.608818 396.288 159.102151 449.635556l7.594667 3.569777 18.005333 0.924445C233.839929 622.464 353.676373 719.872 493.509262 719.644444c130.545778-0.213333 242.716444-87.210667 276.337778-219.349333l78.293333-2.673778z m-141.653333-78.165334l-5.205333 37.404445c-15.985778 115.2-104.106667 190.762667-208.839111 190.933333-112.156444 0.184889-209.351111-84.707556-245.333334-242.830222l-7.537778-33.137778-67.669333-3.456c-79.744-40.234667-113.024-100.124444-107.150222-167.665778 4.764444-54.883556 36.792889-105.799111 69.205333-121.201778l720.213334-0.597333c60.387556 18.033778 102.314667 79.032889 105.699555 152.391111 3.598222 77.952-36.565333 147.697778-114.702222 183.424l-138.695111 4.736zM820.079929 277.873778c-15.402667 0-27.790222-5.191111-37.191111-15.587556-9.187556-9.799111-13.795556-22.599111-13.994667-38.584889h23.395556c0.398222 11.192889 2.801778 19.783111 7.196444 25.386667 4.408889 6.001778 10.993778 9.002667 19.783111 9.002667 8.206222 0 14.392889-1.806222 18.602667-5.603556 3.982222-3.797333 6.186667-9.6 6.186667-17.393778 0-7.992889-3.2-15.587556-9.386667-22.584889-3.996444-4.195556-10.396444-9.6-19.598222-16-16.583111-11.392-27.591111-20.195556-32.782223-26.183111-9.6-10.808889-14.193778-23.395556-14.193777-37.973333h99.555555v20.579556h-70.371555c3.2 7.196444 12.003556 15.587556 26.595555 25.187555 13.994667 9.386667 23.978667 16.995556 29.582222 22.997333 9.201778 10.183111 13.994667 21.390222 13.994667 33.777778 0 12.8-4.408889 22.997333-13.198222 30.990222-8.988444 7.992889-20.394667 11.989333-34.176 11.989334z"  horiz-adv-x="1024" />

    
    <glyph glyph-name="jidinghe" unicode="&#59039;" d="M748.8 313.6h83.2a32 32 0 0 0 32-32v-166.4a32 32 0 0 0-32-32H192a32 32 0 0 0-32 32V281.6a32 32 0 0 0 32 32h89.6V656a22.4 22.4 0 0 0 44.8 0V313.6h377.6V656a22.4 22.4 0 0 0 44.8 0V313.6z m-492.8-64a32 32 0 0 1-32-32v-38.4a32 32 0 0 1 32-32h512a32 32 0 0 1 32 32v38.4a32 32 0 0 1-32 32H256z m25.6-19.2h134.4a32 32 0 0 0 0-64H281.6a32 32 0 0 0 0 64z m441.6 0a32 32 0 1 0 0-64 32 32 0 0 0 0 64z"  horiz-adv-x="1024" />

    
    <glyph glyph-name="dianya" unicode="&#58929;" d="M229.76 540.8c-6.50666667 0-13.01333333 1.81333333-18.88 5.65333333-15.68 10.45333333-19.94666667 31.57333333-9.6 47.36 69.54666667 104.74666667 186.02666667 167.25333333 311.68 167.25333334 124.37333333 0 240.21333333-61.65333333 309.97333333-164.8 10.56-15.57333333 6.4-36.8-9.17333333-47.36-15.57333333-10.56-36.8-6.4-47.36 9.17333333-57.06666667 84.48-151.78666667 134.82666667-253.44 134.82666667-102.61333333 0-197.86666667-51.09333333-254.72-136.74666667-6.61333333-9.92-17.38666667-15.36-28.48-15.36zM699.09333333 105.17333332999999c-13.22666667 0-25.92 7.78666667-31.46666666 20.8L511.46666667 492.05333333 356.69333333 126.08000000000004c-7.36-17.38666667-27.41333333-25.49333333-44.69333333-18.13333333-17.38666667 7.36-25.49333333 27.41333333-18.13333333 44.69333333L473.81333333 578.13333333l0.96 1.70666667c7.46666667 13.12 21.44 21.22666667 36.58666667 21.33333333 15.04 0 29.12-8.10666667 36.58666667-21.22666666l0.96-1.70666667 0.74666666-1.81333333 180.69333334-423.68c7.36-17.38666667-0.64-37.44-18.02666667-44.8-4.26666667-1.92-8.85333333-2.77333333-13.22666667-2.77333334zM369.38666667 293.86666667h275.52M369.38666667 328h275.62666666v-68.26666667H369.38666667z"  horiz-adv-x="1024" />

    
    <glyph glyph-name="dianya1" unicode="&#58930;" d="M220.95644445 546.24711111c-6.94044445 0-13.88088889 1.93422222-20.13866667 6.03022222-16.72533333 11.15022222-21.27644445 33.67822222-10.24 50.51733334 71.90755555 108.31644445 192.39822222 173.056 322.33244444 173.056 128.68266667 0 248.49066667-63.71555555 320.62577778-170.43911112 11.264-16.61155555 6.82666667-39.25333333-9.78488889-50.51733333-16.61155555-11.264-39.25333333-6.82666667-50.51733333 9.78488889-58.59555555 86.69866667-155.87555555 138.35377778-260.20977778 138.35377778-105.472 0-203.20711111-52.56533333-261.68888889-140.51555556-6.94044445-10.46755555-18.54577778-16.27022222-30.37866666-16.27022222zM511.54488889 98.07644445000005c-15.36 0-29.696 8.30577778-37.31911111 21.61777777l-1.024 1.82044445L327.11111111 467.05777778c-7.85066667 18.54577778 0.79644445 39.936 19.34222222 47.67288889 18.54577778 7.85066667 39.936-0.79644445 47.67288889-19.34222222l117.53244445-277.84533334L630.21511111 495.50222222c7.85066667 18.54577778 29.24088889 27.07911111 47.78666667 19.22844445 18.54577778-7.85066667 27.07911111-29.24088889 19.22844444-47.78666667L549.888 121.51466667l-1.024-1.82044445c-7.73688889-13.312-21.95911111-21.61777778-37.31911111-21.61777777z"  horiz-adv-x="1024" />

    
    <glyph glyph-name="reshuiqi" unicode="&#58894;" d="M438.82666667 505.70666667c-68.05333333 0-123.30666667-55.36-123.30666667-123.30666667 0-68.05333333 55.36-123.30666667 123.30666667-123.30666667 68.05333333 0 123.30666667 55.36 123.30666666 123.30666667 0 67.94666667-55.25333333 123.30666667-123.30666666 123.30666667z m0-207.04c-46.18666667 0-83.73333333 37.54666667-83.73333334 83.73333333 0 39.36 27.30666667 72.42666667 63.89333334 81.38666667v-86.82666667H458.66666667v86.82666667c36.69333333-8.96 64-42.02666667 64-81.38666667-0.10666667-46.18666667-37.65333333-83.73333333-83.84-83.73333333zM421.86666667 725.54666667h39.57333333V657.06666667h-39.57333333zM487.68 725.54666667h39.57333333V657.06666667h-39.57333333zM553.49333333 725.54666667H593.06666667V657.06666667h-39.57333334zM886.72 700.58666667l-42.24 3.41333333v0.85333333c0.21333333 5.44-1.70666667 10.66666667-5.44 14.61333334-3.73333333 3.94666667-8.85333333 6.08-14.29333333 6.08h-88.85333334c-5.44 0-10.56-2.24-14.29333333-6.08-3.73333333-3.94666667-5.76-9.17333333-5.44-14.61333334l13.65333333-298.77333333c0.53333333-10.56 9.17333333-18.88 19.73333334-18.88h10.77333333v-184.64c0-62.18666667-43.30666667-114.45333333-101.44-128.10666667-9.70666667 29.01333333-37.22666667 50.02666667-69.44 50.02666667-11.62666667 0-22.72-2.77333333-32.53333333-7.57333333-14.72 5.97333333-25.17333333 20.48-25.17333334 37.33333333v9.17333333h126.50666667c10.77333333 0 19.52 8.85333333 19.52 19.84v622.93333334c0 10.88-8.74666667 19.84-19.52 19.84H219.41333333c-10.77333333 0-19.52-8.85333333-19.52-19.84v-622.93333334c0-10.88 8.74666667-19.84 19.52-19.84h131.94666667v-9.17333333c0-16.85333333-10.45333333-31.36-25.17333333-37.33333333-9.81333333 4.90666667-20.8 7.57333333-32.53333334 7.57333333-40.42666667 0-73.28-32.85333333-73.28-73.28 0-40.42666667 32.85333333-73.28 73.28-73.28S366.93333333 10.773333330000014 366.93333333 51.200000000000045c0 13.65333333-3.73333333 26.56-10.34666666 37.54666667 20.69333333 14.4 34.24 38.4 34.24 65.49333333v9.17333333h101.22666666v-9.17333333c0-27.09333333 13.54666667-51.09333333 34.24-65.49333333-6.61333333-10.98666667-10.34666667-23.78666667-10.34666666-37.54666667 0-40.42666667 32.85333333-73.28 73.28-73.28 34.66666667 0 63.68 24.21333333 71.36 56.53333333 79.14666667 15.04 139.09333333 84.69333333 139.09333333 168.10666667V387.2h11.2c10.56 0 19.30666667 8.32 19.73333333 18.88l5.76 125.12 36.37333334-2.88c0.53333333 0 1.06666667-0.10666667 1.6-0.10666667 4.69333333 0 9.28 1.70666667 12.8 4.69333334 3.94666667 3.41333333 6.50666667 8.21333333 6.93333333 13.44l10.66666667 132.90666666c1.06666667 10.98666667-7.04 20.48-18.02666667 21.33333334zM293.76 17.49333333000004c-18.56 0-33.70666667 15.14666667-33.70666667 33.70666667s15.14666667 33.70666667 33.70666667 33.70666667S327.46666667 69.75999999999999 327.46666667 51.200000000000045s-15.04-33.70666667-33.70666667-33.70666667z m-54.72 768.74666667h399.68v-583.36H239.04V786.24z m350.4-768.74666667c-18.56 0-33.70666667 15.14666667-33.70666667 33.70666667s15.14666667 33.70666667 33.70666667 33.70666667 33.70666667-15.14666667 33.70666667-33.70666667-15.14666667-33.70666667-33.70666667-33.70666667z m202.77333333 409.28h-23.68l-11.84 259.2h47.46666667l-11.94666667-259.2z m64.10666667 142.50666667L838.4 570.66666667l4.26666667 93.76 21.22666666-1.70666667-7.57333333-93.44z"  horiz-adv-x="1024" />

    
    <glyph glyph-name="wi-celsius" unicode="&#58882;" d="M332.8 521.216c0 17.066667 6.144 31.744 18.090667 43.690667 12.288 12.288 26.624 18.090667 43.690666 18.090666 16.725333 0 31.402667-6.144 43.349334-18.090666 11.946667-12.288 18.090667-26.624 18.090666-43.690667s-6.144-31.744-18.090666-43.690667c-11.946667-12.288-26.624-18.090667-43.349334-18.090666-17.066667 0-31.744 6.144-43.690666 18.090666s-18.090667 26.624-18.090667 43.690667z m30.037333 0c0-8.874667 3.072-16.384 9.216-22.869333 6.485333-6.485333 13.994667-9.557333 22.869334-9.557334 8.874667 0 16.384 3.072 22.869333 9.557334s9.557333 13.994667 9.557333 22.869333c0 8.874667-3.072 16.384-9.557333 22.869333s-13.994667 9.557333-22.869333 9.557334c-8.874667 0-16.384-3.072-22.869334-9.557334a31.402667 31.402667 0 0 1-9.216-22.869333z m132.778667-150.869333c0-26.282667 7.168-49.493333 21.845333-69.973334 7.509333-10.581333 18.090667-19.114667 31.744-25.6 13.312-6.144 28.672-9.557333 45.738667-9.557333 49.834667 0 81.237333 19.114667 93.866667 57.002667 1.365333 4.778667 0.682667 9.557333-2.048 13.994666a16.554667 16.554667 0 0 1-11.264 7.850667 15.121067 15.121067 0 0 1-13.653334-2.389333c-4.096-2.730667-6.826667-6.485333-7.850666-11.605334 0-0.341333 0-0.682667-0.341334-1.706666l-0.682666-2.389334c-3.754667-6.485333-8.874667-11.605333-15.36-15.36-10.581333-6.485333-24.576-9.557333-41.984-9.557333-10.581333 0-20.138667 1.706667-28.330667 5.461333-13.653333 5.802667-23.210667 16.042667-29.013333 30.378667-3.754667 9.216-5.802667 20.48-5.802667 33.109333v109.909334c0 5.12 0.341333 10.24 1.024 15.36 1.365333 12.970667 6.485333 24.917333 15.36 35.498666 9.898667 11.946667 25.6 17.749333 47.104 17.749334 17.749333 0 31.744-3.072 41.984-9.216 6.826667-4.096 11.946667-9.216 15.36-15.36 0.341333-0.682667 0.341333-1.706667 0.682667-2.730667s0.341333-1.706667 0.341333-2.048c1.365333-4.778667 4.096-8.192 7.850667-10.24 4.096-2.389333 8.533333-2.730667 13.653333-1.706667 4.778667 1.024 8.533333 3.754667 11.264 7.850667 2.730667 4.096 3.413333 8.533333 2.048 13.653333v0.341334l-2.730667 7.850666c-1.706667 3.754667-4.778667 8.874667-9.557333 14.677334-4.437333 6.144-9.898667 10.922667-15.36 15.018666-7.168 5.12-16.384 9.216-27.989333 12.970667-11.605333 3.413333-24.234667 5.12-37.888 5.12-17.408 0-32.426667-3.072-46.08-9.216-13.312-6.144-23.893333-14.336-31.061334-24.917333-14.677333-20.138667-22.186667-43.690667-22.186666-70.656v-109.568z"  horiz-adv-x="1024" />

    
    <glyph glyph-name="wi-humidity" unicode="&#58901;" d="M258.048 309.248c0 30.037333 8.192 64.512 24.576 103.424s37.546667 76.8 63.488 112.981333c53.248 70.314667 99.669333 123.562667 138.581333 159.402667l25.6 24.576c8.533333-8.874667 18.090667-17.066667 28.330667-24.576 13.994667-14.336 35.498667-37.888 64.170667-71.338667s53.589333-63.146667 74.069333-90.453333c24.234667-34.474667 45.056-71.68 61.781333-110.933333s25.258667-73.728 25.258667-103.424c0-34.133333-6.485333-66.56-19.797333-97.621334-13.312-31.061333-31.061333-58.026667-53.589334-80.554666-22.528-22.528-49.493333-40.618667-80.896-53.930667-31.402667-13.312-64.512-20.138667-99.328-20.138667-34.133333 0-66.56 6.485333-97.621333 19.456-31.061333 12.970667-58.026667 30.378667-80.554667 52.906667-22.528 22.186667-40.618667 49.152-53.930666 80.213333s-20.138667 64.512-20.138667 100.010667z m77.141333 100.010667c0-28.330667 5.802667-50.858667 17.749334-67.925334 11.946667-16.725333 30.037333-25.258667 54.272-25.258666 24.576 0 42.666667 8.533333 54.954666 25.258666 11.946667 16.725333 18.090667 39.253333 18.432 67.925334-0.341333 28.672-6.485333 51.2-18.432 68.266666-11.946667 16.725333-30.378667 25.258667-54.954666 25.258667-24.234667 0-42.325333-8.533333-54.272-25.258667-11.946667-17.066667-17.749333-39.594667-17.749334-68.266666z m53.589334 0v11.946666c0 2.730667 0.341333 6.485333 0.682666 11.264s0.682667 8.533333 1.706667 10.922667 1.706667 5.461333 3.072 8.192c1.365333 2.730667 3.072 5.12 5.12 6.144 2.389333 1.365333 4.778667 2.048 7.850667 2.048 4.778667 0 8.533333-1.365333 11.264-4.096s4.778667-7.168 5.802666-12.970667c1.024-6.144 1.706667-10.922667 2.048-15.36s0.341333-10.24 0.341334-17.749333c0-7.850667 0-13.653333-0.341334-17.749333s-1.024-9.216-2.048-15.36c-1.024-5.802667-3.072-10.24-5.802666-12.970667s-6.485333-4.096-11.264-4.096c-3.072 0-5.461333 0.682667-7.850667 2.048a11.434667 11.434667 0 0 0-5.12 6.144c-1.365333 2.730667-2.389333 5.802667-3.072 8.192-0.682667 2.730667-1.365333 6.485333-1.706667 10.922667-0.341333 4.778667-0.682667 8.533333-0.682666 10.922666v11.605334z m20.138666-264.533334h45.056l170.325334 366.592h-46.08l-169.301334-366.592z m146.773334 102.058667c0.341333-28.672 6.826667-51.2 18.773333-68.266667 11.946667-16.725333 30.378667-25.258667 54.613333-25.258666 24.576 0 42.666667 8.533333 54.613334 25.258666 11.946667 16.725333 17.749333 39.594667 18.090666 68.266667-0.341333 28.672-6.144 51.2-18.090666 67.925333-11.946667 16.725333-30.037333 25.258667-54.613334 25.258667-24.234667 0-42.666667-8.533333-54.613333-25.258667-12.288-16.725333-18.432-39.253333-18.773333-67.925333z m53.589333 0c0 7.850667 0 13.653333 0.341333 17.749333s1.024 9.216 2.048 15.36 3.072 10.24 5.802667 12.970667 6.485333 4.096 11.264 4.096c3.072 0 5.802667-0.682667 8.192-2.048 2.389333-1.365333 4.096-3.413333 5.461333-6.485333 1.365333-3.072 2.389333-5.802667 3.413334-8.192s1.365333-6.144 1.706666-10.922667l0.341334-10.922667v-23.552l-0.341334-10.922666-1.706666-10.922667-3.413334-8.192-5.461333-6.485333-8.192-2.048c-4.778667 0-8.533333 1.365333-11.264 4.096s-4.778667 7.168-5.802667 12.970666c-1.024 6.144-1.706667 11.264-2.048 15.36s-0.341333 10.24-0.341333 18.090667z"  horiz-adv-x="1024" />

    
    <glyph glyph-name="wi-rain" unicode="&#58952;" d="M158.378667 318.805333c0 39.253333 12.288 74.069333 36.864 104.789334a164.522667 164.522667 0 0 0 93.184 59.050666c10.581333 46.421333 34.816 84.650667 72.021333 114.688s79.872 44.714667 128 44.714667c47.104 0 88.746667-14.677333 125.610667-43.690667 36.864-29.013333 60.757333-66.56 71.68-112.298666h10.922666c30.378667 0 58.709333-7.509333 84.650667-22.186667s46.762667-35.157333 61.781333-60.757333c15.018667-25.6 22.869333-53.930667 22.869334-84.309334 0-30.037333-7.168-57.685333-21.504-83.285333-14.336-25.6-34.133333-46.08-59.050667-61.44-24.917333-15.36-52.224-23.552-81.92-24.234667-4.437333 0-6.826667 2.048-6.826667 5.802667v45.397333c0 4.096 2.389333 6.144 6.826667 6.144 29.013333 1.365333 53.930667 12.970667 74.410667 34.816s30.72 47.445333 30.72 77.141334-11.264 55.296-33.450667 77.141333-48.469333 32.768-78.848 32.768h-54.954667c-4.096 0-6.144 2.048-6.144 5.802667l-2.730666 19.797333a139.127467 139.127467 0 0 1-47.445334 92.501333c-27.989333 24.917333-60.074667 37.205333-97.28 37.205334s-69.973333-12.288-97.28-37.205334a137.216 137.216 0 0 1-46.421333-92.501333l-2.389333-18.090667c0-4.096-2.389333-6.485333-6.826667-6.485333l-18.090667-1.024c-28.330667-3.413333-52.224-15.701333-71.68-36.522667s-29.013333-45.397333-29.013333-73.728c0-29.696 10.24-55.296 30.72-77.141333s45.397333-33.450667 74.410667-34.816c3.754667 0 5.802667-2.048 5.802666-6.144v-45.397333c0-3.754667-2.048-5.802667-5.802666-5.802667-45.738667 2.048-84.309333 19.456-116.053334 52.224s-46.762667 71.68-46.762666 117.077333z m182.613333-228.352c0 1.365333 0.341333 3.754667 1.365333 6.826667l55.637334 196.949333a28.5696 28.5696 0 0 0 34.816 19.114667c8.192-1.365333 14.336-5.802667 18.432-12.629333 4.096-6.826667 5.12-14.336 2.730666-22.869334l-55.637333-195.584c-4.096-14.677333-13.653333-21.845333-27.989333-21.845333-1.365333 0-2.389333 0.341333-3.754667 0.682667-2.048 0.682667-3.072 1.024-3.413333 1.024a28.3648 28.3648 0 0 0-16.725334 11.264 30.549333 30.549333 0 0 0-5.461333 17.066666z m89.429333-95.914666l83.285334 299.349333c1.365333 6.485333 4.778667 11.605333 10.24 15.018667 5.461333 3.413333 10.922667 5.12 16.725333 5.12 3.072 0 6.144-0.341333 9.216-1.024 7.509333-2.048 12.970667-6.485333 16.725333-13.312 3.754667-6.826667 4.437333-13.994667 2.389334-21.845334l-82.944-299.690666c-1.365333-5.802667-4.437333-10.581333-9.898667-14.677334-5.461333-4.096-10.922667-6.144-17.408-6.144-3.072 0-6.144 0.682667-8.533333 1.706667-6.826667 1.706667-12.629333 6.144-17.749334 13.312-3.754667 6.144-4.437333 13.312-2.048 22.186667z m140.970667 95.232c0 1.365333 0.341333 3.754667 1.365333 7.850666l55.637334 196.949334a28.330667 28.330667 0 0 0 10.24 15.018666c5.12 3.413333 10.24 5.12 15.701333 5.12 2.730667 0 5.802667-0.341333 8.874667-1.024 7.168-2.048 12.288-5.461333 15.701333-10.581333 3.413333-5.12 5.12-10.581333 5.12-16.042667 0-1.024-0.341333-2.730667-0.682667-4.778666s-0.682667-3.413333-0.682666-4.096l-55.637334-195.584c-1.365333-6.485333-4.437333-11.946667-9.557333-15.701334s-10.922667-5.802667-17.408-5.802666l-8.192 1.706666a27.613867 27.613867 0 0 0-15.701333 10.922667 31.266133 31.266133 0 0 0-4.778667 16.042667z"  horiz-adv-x="1024" />

    
    <glyph glyph-name="wi-sunrise" unicode="&#58961;" d="M93.866667 371.712c0 8.533333 3.413333 16.384 10.24 23.552 7.509333 6.485333 15.701333 9.898667 23.893333 9.898667h79.530667c9.216 0 16.725333-3.413333 22.869333-9.898667 6.144-6.485333 9.216-14.677333 9.216-23.552 0-9.898667-3.072-18.090667-9.216-24.576a30.72 30.72 0 0 0-22.869333-9.898667H128c-9.216 0-17.066667 3.413333-23.893333 10.24-6.826667 7.168-10.24 15.36-10.24 24.234667z m113.664 272.384c0 9.216 3.072 17.066667 8.874666 23.210667 7.850667 6.826667 15.701333 10.24 24.234667 10.24 8.874667 0 16.725333-3.413333 23.210667-9.898667l55.978666-56.32c6.485333-7.509333 9.557333-15.36 9.557334-23.552 0-9.557333-3.072-17.749333-9.216-23.893333s-13.653333-9.557333-22.528-9.557334c-8.192 0-16.384 3.413333-23.893334 9.898667L216.405333 619.178667c-5.802667 7.168-8.874667 15.701333-8.874666 24.917333z m68.266666-460.8c0 9.557333 3.413333 17.408 9.898667 23.210667 6.144 5.802667 13.653333 8.874667 23.210667 8.874666h89.770666l106.154667 99.669334c3.413333 2.730667 7.168 2.730667 11.605333 0l107.861334-99.669334h94.549333c9.216 0 17.066667-3.072 23.552-9.557333a30.72 30.72 0 0 0 9.898667-22.869333c0-9.216-3.413333-17.066667-9.898667-23.552-6.485333-6.485333-14.336-9.898667-23.552-9.898667h-115.370667c-3.413333 0-6.826667 0.682667-9.898666 2.389333l-82.261334 77.482667-81.578666-77.482667c-2.730667-1.706667-5.802667-2.389333-9.557334-2.389333H308.906667a33.245867 33.245867 0 0 0-33.109334 33.792zM307.2 371.712c0-33.109333 7.168-63.146667 21.162667-90.112 0.682667-4.096 3.754667-6.144 8.533333-6.144h64.170667c2.389333 0 4.096 1.024 5.12 2.730667 1.024 2.048 0.682667 4.096-0.682667 6.485333-21.845333 26.282667-32.768 55.296-32.768 87.04 0 38.229333 13.653333 70.997333 40.96 97.962667 27.306667 26.965333 60.074667 40.277333 98.645333 40.277333 38.229333 0 70.656-13.312 97.621334-40.277333 26.965333-26.965333 40.618667-59.392 40.618666-97.962667 0-32.085333-10.922667-61.098667-32.426666-87.04-1.365333-2.389333-1.706667-4.437333-1.024-6.485333s2.389333-2.730667 5.12-2.730667h64.853333c4.437333 0 7.168 2.048 7.850667 6.144 15.018667 26.282667 21.845333 56.32 21.845333 90.112 0 27.648-5.461333 54.272-16.384 79.189333-10.922667 25.258667-25.6 46.762667-43.690667 65.194667a208.213333 208.213333 0 0 1-65.194666 43.690667c-25.258667 10.922667-51.541333 16.042667-79.189334 16.042666-27.648 0-54.272-5.461333-79.530666-16.042666-25.258667-10.922667-47.104-25.258667-65.536-43.690667A203.434667 203.434667 0 0 1 307.2 371.712z m171.690667 305.834667V756.053333c0 9.898667 3.072 17.749333 9.557333 24.234667s14.677333 9.557333 24.234667 9.557333c9.557333 0 17.408-3.072 23.893333-9.557333s9.557333-15.018667 9.557333-24.576v-78.506667c0-9.898667-3.072-17.749333-9.557333-24.234666-6.144-6.144-14.336-9.557333-23.893333-9.557334a32.426667 32.426667 0 0 0-24.234667 9.557334 33.1776 33.1776 0 0 0-9.557333 24.576z m216.746666-90.112c0 8.533333 3.072 16.384 9.216 23.552l55.296 56.32c6.485333 6.485333 14.677333 9.898667 23.893334 9.898666 9.216 0 17.408-3.413333 23.552-9.898666 6.485333-6.485333 9.557333-14.336 9.557333-23.552 0-9.898667-3.072-18.090667-8.874667-24.917334L750.933333 563.882667c-7.168-6.485333-15.36-9.898667-23.893333-9.898667-9.216 0-16.725333 3.072-22.528 9.557333s-8.874667 14.336-8.874667 23.893334z m89.088-215.722667c0 9.216 3.072 17.066667 9.216 23.552 6.144 6.485333 13.653333 9.898667 22.528 9.898667h80.213334c9.216 0 17.066667-3.413333 23.552-9.898667a33.792 33.792 0 0 0 0-47.786667c-6.485333-6.826667-14.336-10.24-23.552-10.24h-80.213334c-9.216 0-16.725333 3.413333-22.869333 9.898667-5.802667 6.826667-8.874667 15.018667-8.874667 24.576z"  horiz-adv-x="1024" />

    
    <glyph glyph-name="wi-sunset" unicode="&#58962;" d="M98.304 367.957333c0 9.557333 3.413333 17.066667 10.24 23.210667 5.802667 6.144 13.653333 8.874667 23.210667 8.874667h78.848a30.856533 30.856533 0 0 0 31.744-32.085334c0-9.557333-3.072-17.749333-9.216-24.234666-6.144-6.485333-13.653333-9.898667-22.528-9.898667h-78.506667c-9.216 0-17.066667 3.413333-23.552 10.24-6.826667 6.826667-10.24 14.677333-10.24 23.893333z m112.298667 268.288c0 9.557333 2.730667 17.408 8.533333 23.210667 6.826667 6.826667 14.677333 10.24 23.893333 10.24 9.898667 0 17.408-3.413333 23.210667-10.24l55.296-55.637333c15.701333-15.018667 15.701333-30.378667 0-46.08a30.037333 30.037333 0 0 0-22.186667-9.557334c-7.509333 0-15.018667 3.072-23.210666 9.557334L219.477333 613.034667a32.768 32.768 0 0 0-8.874666 23.210666z m67.242666-453.290666c0 8.874667 3.413333 16.725333 10.24 23.552 6.144 6.144 13.994667 9.216 23.210667 9.216h109.909333c3.754667 0 6.826667-0.682667 9.557334-2.730667l80.213333-75.776L592.554667 213.333333c2.389333 1.706667 5.802667 2.730667 9.898666 2.730667h112.64c9.216 0 17.066667-3.072 23.552-9.557333 6.485333-6.485333 9.898667-14.336 9.898667-23.210667 0-9.216-3.413333-17.066667-9.898667-23.552-6.485333-6.485333-14.336-9.898667-23.552-9.898667h-91.477333l-107.178667-96.938666c-4.096-3.072-7.850667-3.072-11.264 0l-105.130666 96.938666h-88.746667c-9.216 0-17.066667 3.413333-23.552 9.898667a30.9248 30.9248 0 0 0-9.898667 23.210667z m32.085334 185.002666c0-33.792 6.485333-63.829333 19.797333-89.429333 2.048-3.754667 5.12-5.461333 9.216-5.461333h63.829333c2.730667 0 4.437333 0.682667 5.12 2.389333 0.682667 1.706667-0.341333 3.754667-2.389333 6.144-20.138667 25.258667-30.378667 54.272-30.378667 86.357333 0 37.546667 13.312 69.632 40.277334 95.914667 26.965333 26.282667 59.392 39.594667 97.28 39.594667 37.546667 0 69.632-13.312 96.597333-39.594667 26.624-26.624 40.277333-58.368 40.277333-95.573333 0-32.085333-10.24-61.098667-30.378666-86.357334-2.389333-2.389333-3.072-4.437333-2.389334-6.144 0.682667-1.706667 2.389333-2.389333 5.12-2.389333h64.170667c4.437333 0 7.168 1.706667 8.192 5.461333 13.994667 26.624 21.162667 56.661333 21.162667 89.429334 0 26.965333-5.461333 53.248-16.042667 78.165333s-25.258667 46.762667-43.349333 64.853333-39.594667 32.426667-64.512 43.349334a193.536 193.536 0 0 1-78.506667 16.042666c-27.306667 0-53.589333-5.461333-78.506667-16.042666-24.917333-10.922667-46.421333-25.258667-64.512-43.349334s-32.426667-39.594667-43.349333-64.853333-16.725333-51.541333-16.725333-78.506667z m169.301333 300.714667V748.202667c0 9.216 3.413333 17.066667 9.898667 23.552s14.336 9.898667 23.552 9.898666c9.216 0 17.066667-3.413333 23.552-9.898666s9.898667-14.336 9.898666-23.552v-79.189334c0-9.216-3.413333-17.066667-9.898666-23.552-6.485333-6.485333-14.336-9.898667-23.552-9.898666-9.216 0-17.066667 3.413333-23.552 9.898666a30.242133 30.242133 0 0 0-9.898667 23.210667z m214.016-88.064c0 9.557333 3.072 17.408 8.874667 22.869333l55.637333 55.637334c5.461333 6.826667 13.312 10.24 23.210667 10.24 9.216 0 17.066667-3.413333 23.210666-9.898667 6.144-6.485333 9.216-14.336 9.216-23.552 0-9.557333-2.730667-17.408-8.533333-23.210667l-56.661333-55.637333c-7.850667-6.485333-15.701333-9.557333-23.552-9.557333a29.696 29.696 0 0 0-22.528 9.557333c-5.802667 6.485333-8.874667 14.336-8.874667 23.552z m88.405333-212.650667c0 9.216 3.072 16.725333 8.874667 22.869334 5.802667 6.144 13.653333 9.216 22.869333 9.216h79.189334c9.216 0 17.066667-3.072 23.552-9.216 6.485333-6.144 9.898667-13.653333 9.898666-22.869334s-3.413333-17.066667-9.898666-23.893333c-6.485333-6.826667-14.336-10.24-23.552-10.24h-79.189334c-8.874667 0-16.384 3.413333-22.528 9.898667a34.065067 34.065067 0 0 0-9.216 24.234666z"  horiz-adv-x="1024" />

    
    <glyph glyph-name="wi-wind-deg" unicode="&#58978;" d="M127.658667 401.066667c0 69.632 17.408 134.144 51.882666 193.194666s81.237333 105.813333 140.288 140.288 123.221333 51.541333 192.512 51.541334c51.882667 0 101.717333-10.24 149.162667-30.378667s88.064-47.786667 122.538667-81.92 61.781333-75.093333 81.92-122.88 30.378667-97.28 30.378666-149.845333c0-51.882667-10.24-101.717333-30.378666-149.162667s-47.786667-88.405333-81.92-122.538667-75.093333-61.44-122.538667-81.578666-96.938667-30.378667-149.162667-30.378667c-52.224 0-102.4 10.24-149.845333 30.378667s-88.405333 47.786667-122.88 81.92-61.44 75.093333-81.92 122.197333-30.037333 96.938667-30.037333 149.162667z m84.650666 0c0-80.896 29.354667-151.210667 88.405334-210.944 59.050667-59.050667 129.365333-88.405333 211.626666-88.405334 53.930667 0 104.106667 13.312 149.845334 40.277334s82.602667 63.146667 109.568 109.226666 40.618667 95.914667 40.618666 149.845334-13.653333 104.106667-40.618666 150.186666-63.488 82.602667-109.568 109.568-95.914667 40.277333-149.845334 40.277334-104.106667-13.312-149.845333-40.277334S279.893333 597.333333 252.586667 551.253333s-40.277333-96.256-40.277334-150.186666z m166.912-199.68l128 447.488c0.341333 3.413333 2.048 5.12 5.12 5.12s4.778667-1.706667 5.12-5.12l127.658667-447.488c1.365333-3.754667 1.024-6.485333-0.682667-8.533334s-4.437333-2.048-8.192 0l-118.442666 44.373334c-3.413333 1.365333-6.826667 1.365333-9.898667 0l-119.466667-44.373334c-3.413333-2.048-5.802667-2.048-7.168 0s-2.730667 5.12-2.048 8.533334z"  horiz-adv-x="1024" />

    


  </font>
</defs>
</svg>
